<svg xmlns="http://www.w3.org/2000/svg" width="342.363" height="219.073" viewBox="0 0 342.363 219.073">
  <g id="Group_64" data-name="Group 64" transform="translate(-737.237 -521.284)">
    <path id="Path_56" data-name="Path 56" d="M763.667,532.539a12.534,12.534,0,0,1-.916,5.049,9.119,9.119,0,0,1-2.561,3.457,10.469,10.469,0,0,1-3.888,1.978,18.005,18.005,0,0,1-4.856.629h-7.441v11.982h-6.716V521.813h14.737a15.381,15.381,0,0,1,4.5.651,10.448,10.448,0,0,1,3.717,2.006,9.6,9.6,0,0,1,2.512,3.36,11.186,11.186,0,0,1,.916,4.709m-6.954.146a3.824,3.824,0,0,0-1.329-3.226,5.755,5.755,0,0,0-3.6-1.026h-7.777v8.6h7.875q4.828,0,4.833-4.348" fill="#262626"/>
    <path id="Path_57" data-name="Path 57" d="M770.144,555.634V521.813h23.431v6.62H776.858v5.8h9.711v6.616h-9.711v8.164H794.3v6.622Z" fill="#262626"/>
    <path id="Path_58" data-name="Path 58" d="M828.94,538.724a18.255,18.255,0,0,1-1.47,7.659,14.913,14.913,0,0,1-3.914,5.266A15.945,15.945,0,0,1,818,554.67a21.421,21.421,0,0,1-6.355.965h-10.1V521.813H812.13a23.875,23.875,0,0,1,6.691.9,13.4,13.4,0,0,1,5.312,2.92,13.761,13.761,0,0,1,3.525,5.244,21.194,21.194,0,0,1,1.282,7.851m-7.006,0q0-5.145-2.361-7.719-2.379-2.57-7.734-2.573H808.26v20.581H811.6a12.937,12.937,0,0,0,4.612-.744,8.367,8.367,0,0,0,3.209-2.09,8.684,8.684,0,0,0,1.887-3.246,13.316,13.316,0,0,0,.627-4.209" fill="#262626"/>
    <path id="Path_59" data-name="Path 59" d="M835.7,555.634V521.813h23.435v6.62H842.419v5.8h9.716v6.616h-9.716v8.164h17.442v6.622Z" fill="#262626"/>
    <path id="Path_60" data-name="Path 60" d="M891.268,545.41a11.91,11.91,0,0,1-.775,4.39,8.5,8.5,0,0,1-2.416,3.4,11.37,11.37,0,0,1-4.129,2.2,20.328,20.328,0,0,1-5.968.77,17.852,17.852,0,0,1-7.726-1.64,13.1,13.1,0,0,1-5.414-4.495l4.878-4.348a10.487,10.487,0,0,0,3.987,2.971,12.215,12.215,0,0,0,4.66.9,8.848,8.848,0,0,0,4.473-.869,3.04,3.04,0,0,0,1.424-2.8,3.28,3.28,0,0,0-.291-1.429,2.963,2.963,0,0,0-1.087-1.134,9.627,9.627,0,0,0-2.3-1.015c-1-.322-2.286-.66-3.861-1.015a34.8,34.8,0,0,1-4.28-1.254,12.112,12.112,0,0,1-3.355-1.837,7.484,7.484,0,0,1-2.175-2.8,10.117,10.117,0,0,1-.775-4.2,8.933,8.933,0,0,1,.944-4.154,9.3,9.3,0,0,1,2.583-3.119,11.954,11.954,0,0,1,3.843-1.957,17.353,17.353,0,0,1,11.642.736,18.206,18.206,0,0,1,5.389,3.944l-4.879,4.741a12.391,12.391,0,0,0-3.5-2.583,9.557,9.557,0,0,0-4.182-.894,8.234,8.234,0,0,0-2.272.267,4.629,4.629,0,0,0-1.5.7,2.535,2.535,0,0,0-.821.963,2.627,2.627,0,0,0-.238,1.11,2.8,2.8,0,0,0,.31,1.375,2.759,2.759,0,0,0,1.087.989,10.266,10.266,0,0,0,2.08.819c.868.257,1.982.546,3.332.869s2.7.7,4.038,1.135a13.186,13.186,0,0,1,3.621,1.806,8.53,8.53,0,0,1,3.648,7.476" fill="#262626"/>
    <path id="Path_61" data-name="Path 61" d="M911.463,528.433v27.2h-6.717v-27.2h-9.713v-6.619h26.144v6.619Z" fill="#262626"/>
    <path id="Path_62" data-name="Path 62" d="M947.313,555.634l-6.039-12.175H934.46v12.175h-6.71V521.813h15.7a15.281,15.281,0,0,1,4.492.652,10.45,10.45,0,0,1,3.723,2.006,9.614,9.614,0,0,1,2.512,3.359,11.2,11.2,0,0,1,.915,4.709,11.054,11.054,0,0,1-1.622,6.258,9.86,9.86,0,0,1-4.85,3.7l6.472,13.142Zm.817-22.923a3.9,3.9,0,0,0-1.276-3.292,5.7,5.7,0,0,0-3.552-.986H934.46v8.649H943.3q4.832,0,4.828-4.371" fill="#262626"/>
    <rect id="Rectangle_54" data-name="Rectangle 54" width="6.717" height="33.821" transform="translate(962.723 521.813)" fill="#262626"/>
    <path id="Path_63" data-name="Path 63" d="M1001.18,555.634l-2.658-7.538H986.155l-2.656,7.538h-7.248l12.947-33.82h6.574l12.85,33.82Zm-7.147-20.1q-.534-1.5-.99-2.9c-.308-.931-.541-1.722-.7-2.366-.16.644-.4,1.435-.7,2.366s-.637,1.9-.988,2.9l-2.174,6.139h7.73Z" fill="#262626"/>
    <path id="Path_64" data-name="Path 64" d="M1036.275,555.634l-12.389-18.456q-.63-.967-1.323-2.055a17.486,17.486,0,0,1-1.038-1.763c0,.324,0,.8.021,1.425s.025,1.306.025,2.032.009,1.44.022,2.15.029,1.3.029,1.787v14.88h-6.716V521.813h6.52l11.9,17.878q.63.965,1.322,2.053a19.884,19.884,0,0,1,1.033,1.762c0-.322-.008-.8-.027-1.423s-.021-1.306-.021-2.032-.012-1.439-.027-2.149-.026-1.3-.026-1.788v-14.3h6.719v33.821Z" fill="#262626"/>
    <path id="Path_65" data-name="Path 65" d="M1075.781,545.41a11.952,11.952,0,0,1-.775,4.39,8.541,8.541,0,0,1-2.414,3.4,11.346,11.346,0,0,1-4.131,2.2,20.333,20.333,0,0,1-5.966.77,17.875,17.875,0,0,1-7.731-1.64,13.112,13.112,0,0,1-5.411-4.495l4.883-4.348a10.419,10.419,0,0,0,3.984,2.971,12.176,12.176,0,0,0,4.658.9,8.843,8.843,0,0,0,4.472-.869,3.041,3.041,0,0,0,1.427-2.8,3.31,3.31,0,0,0-.29-1.429,2.973,2.973,0,0,0-1.09-1.134,9.633,9.633,0,0,0-2.293-1.015c-1-.322-2.286-.66-3.867-1.015a34.71,34.71,0,0,1-4.275-1.254,12.208,12.208,0,0,1-3.359-1.837,7.475,7.475,0,0,1-2.172-2.8,10.067,10.067,0,0,1-.775-4.2,8.921,8.921,0,0,1,.947-4.154,9.223,9.223,0,0,1,2.582-3.119,11.933,11.933,0,0,1,3.839-1.957,17.358,17.358,0,0,1,11.644.736,18.121,18.121,0,0,1,5.384,3.944l-4.877,4.741a12.38,12.38,0,0,0-3.5-2.583,9.547,9.547,0,0,0-4.181-.894,8.226,8.226,0,0,0-2.273.267,4.6,4.6,0,0,0-1.5.7,2.552,2.552,0,0,0-.823.963,2.688,2.688,0,0,0-.237,1.11,2.4,2.4,0,0,0,1.4,2.364,10.206,10.206,0,0,0,2.081.819c.866.257,1.981.546,3.331.869s2.7.7,4.034,1.135a13.058,13.058,0,0,1,3.625,1.806,8.52,8.52,0,0,1,3.647,7.476" fill="#262626"/>
    <path id="Path_66" data-name="Path 66" d="M754.168,600.255v15.956h25.7V632.9h-25.7v35.929h-16.93v-85.26h60.9v16.688Z" fill="#262626"/>
    <rect id="Rectangle_55" data-name="Rectangle 55" width="16.93" height="85.26" transform="translate(814.576 583.566)" fill="#262626"/>
    <path id="Path_67" data-name="Path 67" d="M904.1,668.826l-15.224-30.693H871.7v30.693H854.769v-85.26h39.584a38.443,38.443,0,0,1,11.324,1.647,26.11,26.11,0,0,1,9.38,5.057,24.126,24.126,0,0,1,6.335,8.464,28.35,28.35,0,0,1,2.311,11.872q0,9.63-4.079,15.775a24.952,24.952,0,0,1-12.239,9.317L923.7,668.826Zm2.068-57.793q0-5.811-3.226-8.3t-8.951-2.482H871.7v21.8h22.289q12.174,0,12.177-11.023" fill="#262626"/>
    <path id="Path_68" data-name="Path 68" d="M1004.209,643.052a30.133,30.133,0,0,1-1.951,11.067,21.673,21.673,0,0,1-6.086,8.57,28.68,28.68,0,0,1-10.414,5.531,51.192,51.192,0,0,1-15.041,1.944,45.034,45.034,0,0,1-19.486-4.14A33.071,33.071,0,0,1,937.588,654.7l12.3-10.96a26.368,26.368,0,0,0,10.045,7.487,30.806,30.806,0,0,0,11.753,2.256q7.676,0,11.268-2.194t3.591-7.061a8.2,8.2,0,0,0-.73-3.595,7.551,7.551,0,0,0-2.738-2.862,24.087,24.087,0,0,0-5.785-2.558q-3.781-1.212-9.745-2.558a86.5,86.5,0,0,1-10.78-3.166,30.639,30.639,0,0,1-8.463-4.628,18.808,18.808,0,0,1-5.48-7.067,25.36,25.36,0,0,1-1.948-10.591,22.55,22.55,0,0,1,2.375-10.476,23.38,23.38,0,0,1,6.51-7.856,29.911,29.911,0,0,1,9.686-4.933,43.654,43.654,0,0,1,29.352,1.853,46.038,46.038,0,0,1,13.58,9.938l-12.3,11.957a31.3,31.3,0,0,0-8.831-6.514,23.993,23.993,0,0,0-10.533-2.253,20.979,20.979,0,0,0-5.725.667,11.85,11.85,0,0,0-3.78,1.764,6.424,6.424,0,0,0-2.065,2.435,6.627,6.627,0,0,0-.615,2.792,6.07,6.07,0,0,0,3.532,5.96A25.887,25.887,0,0,0,967.3,614.6q3.285.977,8.4,2.191t10.172,2.857a33.287,33.287,0,0,1,9.132,4.563,21.488,21.488,0,0,1,9.2,18.844" fill="#262626"/>
    <path id="Path_69" data-name="Path 69" d="M1055.116,600.255v68.571h-16.928V600.255h-24.481V583.566H1079.6v16.688Z" fill="#262626"/>
    <rect id="Rectangle_56" data-name="Rectangle 56" width="8.402" height="44.225" transform="translate(737.396 696.132)" fill="#262626"/>
    <rect id="Rectangle_57" data-name="Rectangle 57" width="8.398" height="44.225" transform="translate(754.677 696.132)" fill="#262626"/>
    <rect id="Rectangle_58" data-name="Rectangle 58" width="8.399" height="44.225" transform="translate(771.951 696.132)" fill="#262626"/>
    <rect id="Rectangle_59" data-name="Rectangle 59" width="8.404" height="44.225" transform="translate(789.224 696.132)" fill="#262626"/>
    <rect id="Rectangle_60" data-name="Rectangle 60" width="8.399" height="44.225" transform="translate(878.888 696.132)" fill="#262626"/>
    <rect id="Rectangle_61" data-name="Rectangle 61" width="8.401" height="44.225" transform="translate(896.163 696.132)" fill="#262626"/>
    <rect id="Rectangle_62" data-name="Rectangle 62" width="8.4" height="44.225" transform="translate(913.441 696.132)" fill="#262626"/>
    <rect id="Rectangle_63" data-name="Rectangle 63" width="8.399" height="44.225" transform="translate(930.719 696.132)" fill="#262626"/>
    <rect id="Rectangle_64" data-name="Rectangle 64" width="8.406" height="44.225" transform="translate(808.137 696.132)" fill="#262626"/>
    <rect id="Rectangle_65" data-name="Rectangle 65" width="8.407" height="44.225" transform="translate(825.415 696.132)" fill="#262626"/>
    <rect id="Rectangle_66" data-name="Rectangle 66" width="8.404" height="44.225" transform="translate(842.694 696.132)" fill="#262626"/>
    <rect id="Rectangle_67" data-name="Rectangle 67" width="8.399" height="44.225" transform="translate(859.974 696.132)" fill="#262626"/>
    <rect id="Rectangle_68" data-name="Rectangle 68" width="8.405" height="44.225" transform="translate(949.627 696.132)" fill="#262626"/>
    <rect id="Rectangle_69" data-name="Rectangle 69" width="8.401" height="44.225" transform="translate(966.904 696.132)" fill="#262626"/>
    <rect id="Rectangle_70" data-name="Rectangle 70" width="8.403" height="44.225" transform="translate(984.183 696.132)" fill="#262626"/>
    <rect id="Rectangle_71" data-name="Rectangle 71" width="8.399" height="44.225" transform="translate(1001.463 696.132)" fill="#262626"/>
    <rect id="Rectangle_72" data-name="Rectangle 72" width="8.403" height="44.225" transform="translate(1018.846 696.132)" fill="#262626"/>
    <rect id="Rectangle_73" data-name="Rectangle 73" width="8.401" height="44.225" transform="translate(1036.126 696.132)" fill="#262626"/>
    <rect id="Rectangle_74" data-name="Rectangle 74" width="8.397" height="44.225" transform="translate(1053.404 696.132)" fill="#262626"/>
    <rect id="Rectangle_75" data-name="Rectangle 75" width="8.403" height="44.225" transform="translate(1070.677 696.132)" fill="#262626"/>
  </g>
</svg>
