<svg xmlns="http://www.w3.org/2000/svg" width="357.861" height="73.948" viewBox="0 0 357.861 73.948">
  <g id="Group_192" data-name="Group 192" transform="translate(-722.109 -6222.357)">
    <g id="Group_191" data-name="Group 191">
      <g id="Group_188" data-name="Group 188">
        <g id="Group_187" data-name="Group 187">
          <g id="Group_185" data-name="Group 185">
            <g id="Group_178" data-name="Group 178">
              <g id="Group_177" data-name="Group 177">
                <path id="Path_252" data-name="Path 252" d="M778.028,6272.878c-2.953,16.5-15.482,23.427-27.6,23.427-13.851,0-28.315-9.778-28.315-31.168v-11.205c0-20.776,12.631-31.575,28.315-31.575,13.446,0,24.751,8.455,27.6,23.734H762.953a12.3,12.3,0,0,0-12.529-9.778c-9.778,0-13.444,8.454-13.444,17.619v11.205c0,8.354,3.768,17.215,13.444,17.215,6.724,0,11-3.871,12.427-9.474Z" fill="#262626"/>
              </g>
            </g>
            <g id="Group_180" data-name="Group 180">
              <g id="Group_179" data-name="Group 179">
                <path id="Path_253" data-name="Path 253" d="M921.572,6223.071v72.318H907.007v-42.272l-13.14,32.5H881.136l-13.14-32.5v42.272h-14.36v-72.318h16.906l17.01,40.029,17.011-40.029Z" fill="#262626"/>
              </g>
            </g>
            <g id="Group_182" data-name="Group 182">
              <g id="Group_181" data-name="Group 181">
                <path id="Path_254" data-name="Path 254" d="M949.446,6223.071v72.318H934.982v-72.318Z" fill="#262626"/>
              </g>
            </g>
            <g id="Group_184" data-name="Group 184">
              <g id="Group_183" data-name="Group 183">
                <path id="Path_255" data-name="Path 255" d="M1018.184,6223.177v72.317h-14.566l-26.381-43.7v43.7H962.876v-72.317h14.361l26.381,44.613v-44.613Z" fill="#262626"/>
              </g>
            </g>
          </g>
          <g id="Group_186" data-name="Group 186">
            <path id="Path_256" data-name="Path 256" d="M1075.384,6248.552l.007-.019-5-15.667-2.994-9.689h-14.871l-24.751,72.317h16.4l4.381-12.629,4.277-13.24,6.825-22.2,4.771,14.245,1.113,3.486v30.343h14.43V6262.9Z" fill="#262626"/>
          </g>
        </g>
      </g>
      <g id="Group_190" data-name="Group 190">
        <g id="Group_189" data-name="Group 189">
          <path id="Path_257" data-name="Path 257" d="M824.191,6282.717H801.5l-4.394,12.672H780.657l24.832-72.555h14.92l24.425,72.555H828.483Zm-4.087-13.284-7.461-22.278-6.847,22.278Z" fill="#262626"/>
        </g>
      </g>
    </g>
  </g>
</svg>
