<svg xmlns="http://www.w3.org/2000/svg" width="432.88" height="330.552" viewBox="0 0 432.88 330.552">
  <g id="Group_143" data-name="Group 143" transform="translate(-689.794 -2163.772)">
    <g id="Group_73" data-name="Group 73">
      <g id="Group_72" data-name="Group 72">
        <path id="Path_101" data-name="Path 101" d="M938.736,2455.088l12.042.578-.24-4.557-11.522.124Z"/>
        <path id="Path_102" data-name="Path 102" d="M951.749,2456.632l-14-.67.41-5.642,13.248-.142Z" fill="#262626"/>
      </g>
    </g>
    <g id="Group_74" data-name="Group 74">
      <path id="Path_103" data-name="Path 103" d="M737.875,2303.973c6.019-9.875,31.823-39.906,36.438-41.151,4.3-1.161,16.772,5.681,16.772,5.681s10.235-8.457,11.849-8.825,1.039,4.066,2.139,5.421c.788.978,4.631,4.254,5.665,2.148s5.615-10.782,7.9-5.588,5.924,3.94,8.212,4.3c4.823.755,7.364,6.426,7.364,6.426s6.44-6.751,8.7-6.345c10.872,1.951,20.641,18.132,22.018,19.231,2.526,2.022,2.446,23.316,2.446,23.316s-36.019.593-47.079,1.538c-25.23,2.153-41.094-6.689-65.788-3.855C751.2,2306.647,735.672,2307.586,737.875,2303.973Z" fill="#262626"/>
    </g>
    <g id="Group_75" data-name="Group 75">
      <path id="Path_104" data-name="Path 104" d="M785.008,2231.128l.282-2.345-12.544-2.288-9.325,77.685,9.9-.28,4.957.761Z" fill="#cfc9c6"/>
    </g>
    <g id="Group_76" data-name="Group 76">
      <path id="Path_105" data-name="Path 105" d="M779.1,2305.723l-5.927-.912-10.8.324,9.569-79.724,14.365,2.619-.387,3.208Zm-5.813-2.747,4.155.626,6.826-74.068-10.726-1.957-9.08,75.65Z" fill="#262626"/>
    </g>
    <g id="Group_77" data-name="Group 77">
      <path id="Path_106" data-name="Path 106" d="M689.794,2241.032l29.393-8.528,14.3,5.174,4.149,22.806L753.212,2262l3.868,18.075,23.709.939,2.791,30.155-79.058,4.179Z" fill="#262626"/>
    </g>
    <g id="Group_78" data-name="Group 78">
      <path id="Path_107" data-name="Path 107" d="M782.452,2302.584c-4.282-.6-17.216-1.7-17.216-1.7l-39.2,2.07L705.833,2313.2l-.923,3.385,100.62-6.617A83.075,83.075,0,0,0,782.452,2302.584Z" fill="#cfc9c6"/>
    </g>
    <g id="Group_79" data-name="Group 79">
      <path id="Path_108" data-name="Path 108" d="M789.544,2275.939l-.023-.623c.156,0,15.5-.663,19.494-8.2,2.211-4.168,1.161-8.484.234-12.3-.786-3.213-1.461-5.989.011-7.969,3.122-4.2,18.053-4.908,18.687-4.935l.028.618c-.151.005-15.27.723-18.217,4.689-1.3,1.746-.652,4.389.09,7.451.957,3.918,2.039,8.355-.285,12.734C805.4,2275.259,790.188,2275.913,789.544,2275.939Z"/>
    </g>
    <g id="Group_80" data-name="Group 80">
      <path id="Path_109" data-name="Path 109" d="M789.324,2276.178l-.043-1.089.237,0c.15,0,15.36-.665,19.295-8.08,2.17-4.094,1.129-8.365.212-12.133-.8-3.267-1.488-6.088.049-8.161,3.21-4.314,18.228-5,18.865-5.027l.23-.01.048,1.08-.233.008c-.15.006-15.163.722-18.04,4.595-1.231,1.655-.6,4.24.12,7.228.975,3.985,2.071,8.466-.3,12.928-4.212,7.937-19.561,8.63-20.212,8.655Z" fill="#262626"/>
    </g>
    <g id="Group_81" data-name="Group 81">
      <path id="Path_110" data-name="Path 110" d="M910.912,2374.716c.7-2.714,15.588-3.883,18.456-2.8a32.26,32.26,0,0,0,6.546.753c1.146-.2,3.584,4.244,1.909,6.6-1.3,1.811-16.946-.519-22.741-1.307a21.007,21.007,0,0,1-2.727-.374h0C911.13,2377.327,910.75,2375.315,910.912,2374.716Z" fill="#262626"/>
    </g>
    <g id="Group_82" data-name="Group 82">
      <path id="Path_111" data-name="Path 111" d="M934.152,2380.863c-4.827,0-12.908-1.116-17.733-1.786l-1.462-.2a20.37,20.37,0,0,1-2.811-.389,2.472,2.472,0,0,1-1.567-1.2,4.2,4.2,0,0,1-.554-2.807c.96-3.712,15.2-3.88,15.347-3.88a13.906,13.906,0,0,1,4.32.459,39.191,39.191,0,0,0,5.723.724,2.487,2.487,0,0,0,.356-.019l.219-.017c1.2,0,2.109,1.52,2.446,2.173.881,1.7,1.377,4.141.139,5.89C938.03,2380.559,936.75,2380.863,934.152,2380.863Zm-8.78-8.429c-6.481,0-13.142,1.419-13.57,2.519-.071.374.253,1.633.75,1.742a19.652,19.652,0,0,0,2.61.354l1.509.207c4.779.662,12.781,1.772,17.481,1.772,2.44,0,2.925-.308,2.973-.344a3.5,3.5,0,0,0,.147-2.742,4.865,4.865,0,0,0-1.34-2.351,4.624,4.624,0,0,1-.517.025,36.59,36.59,0,0,1-6.372-.842A11.942,11.942,0,0,0,925.372,2372.434Z" fill="#262626"/>
    </g>
    <g id="Group_83" data-name="Group 83">
      <path id="Path_112" data-name="Path 112" d="M929.546,2365.792s1.642,4.4-7.688,6.673c-3.581.874,12.14,1.141,14.723.887,0,0,.36-5.3.609-6.06S929.546,2365.792,929.546,2365.792Z" fill="#cfc9c6"/>
    </g>
    <g id="Group_84" data-name="Group 84">
      <path id="Path_113" data-name="Path 113" d="M932.916,2374.362c-12.312,0-12.4-.743-12.5-1.535-.074-.616.336-1.039,1.221-1.254,4.473-1.09,6.136-2.621,6.745-3.716a2.342,2.342,0,0,0,.3-1.76l-.44-1.332,1.393.112c7.6.711,8.077,1.448,8.309,1.8l.242.369-.121.534c-.135.439-.391,3.314-.565,5.831l-.055.776-.772.076C935.821,2374.35,933.953,2374.362,932.916,2374.362Zm-7.6-2.024c2.106.112,4.882.186,7.6.186,1.152,0,2.125-.015,2.8-.043.1-1.363.277-3.582.457-4.779a42.727,42.727,0,0,0-5.606-.883,4.535,4.535,0,0,1-.533,1.841A8.8,8.8,0,0,1,925.314,2372.338Z" fill="#262626"/>
    </g>
    <g id="Group_85" data-name="Group 85">
      <path id="Path_114" data-name="Path 114" d="M1048.069,2494.245h0a58,58,0,0,1-9.493-.282,54.77,54.77,0,0,1-12.186-2.762c-27.583-9.627-43.878-39.8-38.739-71.74a74.374,74.374,0,0,1,25.928-45.748c10.949-9.049,23.709-14.2,36.9-14.895a57.123,57.123,0,0,1,9.5.281,54.369,54.369,0,0,1,12.168,2.755c27.595,9.631,43.905,39.806,38.773,71.743a74.574,74.574,0,0,1-25.946,45.751C1074.023,2488.4,1061.258,2493.547,1048.069,2494.245Zm2.7-129.889c-11.99.634-23.631,5.348-33.657,13.634a68.808,68.808,0,0,0-23.982,42.35c-4.714,29.287,10.044,56.884,35.094,65.622a49.3,49.3,0,0,0,10.962,2.489,52.615,52.615,0,0,0,8.588.252c12-.635,23.635-5.347,33.66-13.634a69,69,0,0,0,24.005-42.354c4.7-29.277-10.072-56.878-35.135-65.629a49.283,49.283,0,0,0-10.946-2.475A52.313,52.313,0,0,0,1050.771,2364.356Z" fill="#262626"/>
    </g>
    <g id="Group_86" data-name="Group 86">
      <path id="Path_115" data-name="Path 115" d="M1119.758,2435.253l-8.955-.9c5.149-32.028-11.136-62.765-38.48-72.306a53.294,53.294,0,0,0-11.913-2.694c-16.128-1.821-32.505,3.374-46.126,14.627a75.5,75.5,0,0,0-26.3,46.443l-9.131-1.456a84.716,84.716,0,0,1,29.538-52.113c15.573-12.867,34.41-18.8,53.047-16.691a62.633,62.633,0,0,1,13.949,3.159C1106.949,2364.335,1125.615,2398.8,1119.758,2435.253Z" fill="#cfc9c6"/>
    </g>
    <g id="Group_87" data-name="Group 87">
      <path id="Path_116" data-name="Path 116" d="M1121.3,2437.265l-12.635-1.272.311-1.935c5.053-31.421-10.622-60.971-37.263-70.27a51.664,51.664,0,0,0-11.511-2.6,54.97,54.97,0,0,0-6.138-.348c-13.727,0-27.079,5.037-38.609,14.562a73.636,73.636,0,0,0-25.647,45.311l-.291,1.824-12.779-2.038.293-1.824a86.584,86.584,0,0,1,30.183-53.248c13.882-11.467,30.075-17.527,46.83-17.527a68.434,68.434,0,0,1,7.6.426,64.486,64.486,0,0,1,14.358,3.255c32.405,11.309,51.575,46.624,45.575,83.966Zm-8.392-4.557,5.282.532c4.868-34.933-13.188-67.628-43.412-78.176a60.536,60.536,0,0,0-13.545-3.067,64.2,64.2,0,0,0-7.189-.406c-15.886,0-31.267,5.77-44.479,16.684a82.8,82.8,0,0,0-28.577,49.161l5.486.874a77.213,77.213,0,0,1,26.631-45.756c12.2-10.078,26.362-15.406,40.959-15.406a59.2,59.2,0,0,1,6.55.367,55.275,55.275,0,0,1,12.321,2.789C1100.717,2370,1117.307,2400.247,1112.912,2432.708Z" fill="#262626"/>
    </g>
    <g id="Group_88" data-name="Group 88">
      <path id="Path_117" data-name="Path 117" d="M1042.385,2421.2c-1.508,3.548-.116,10.5,3.591,12.075,3.689,1.571,8.582-.25,10.082-3.775,1.511-3.551.129-9.979-3.56-11.551C1048.79,2416.377,1043.894,2417.666,1042.385,2421.2Z" fill="#1a171a"/>
    </g>
    <g id="Group_89" data-name="Group 89">
      <path id="Path_118" data-name="Path 118" d="M930.086,2421.733l2.4-.3-5.213-41.092-2.4.292Z"/>
    </g>
    <g id="Group_90" data-name="Group 90">
      <path id="Path_119" data-name="Path 119" d="M929.29,2422.76l-5.445-42.926,4.225-.513,5.443,42.912Z" fill="#262626"/>
    </g>
    <g id="Group_91" data-name="Group 91">
      <path id="Path_120" data-name="Path 120" d="M926.5,2410.582l4.2-2.3-59.8-101.424-4.207,2.31Z" fill="#262626"/>
    </g>
    <g id="Group_92" data-name="Group 92">
      <path id="Path_121" data-name="Path 121" d="M926.164,2411.815l-60.739-103,5.817-3.2,60.734,103.01Zm-58.193-102.3,58.871,99.831,2.588-1.417-58.865-99.84Z" fill="#262626"/>
    </g>
    <g id="Group_93" data-name="Group 93">
      <path id="Path_122" data-name="Path 122" d="M1055.479,2429.651,997.328,2309.79,991.4,2312.9l4.861,8.573-63.442,96.018Zm-111.17-17.578,55.513-84.021,44.007,93.99Z" fill="#262626"/>
    </g>
    <g id="Group_94" data-name="Group 94">
      <path id="Path_123" data-name="Path 123" d="M921.648,2417.865c.006,9.285,6,16.776,13.379,16.764,7.372-.044,13.338-7.611,13.33-16.9s-5.974-16.786-13.355-16.768C927.624,2401.017,921.648,2408.573,921.648,2417.865Z" fill="#cfc9c6"/>
    </g>
    <g id="Group_95" data-name="Group 95">
      <path id="Path_124" data-name="Path 124" d="M935.01,2436.475c-8.377,0-15.2-8.347-15.207-18.608,0-10.28,6.814-18.687,15.186-18.746,8.4,0,15.206,8.349,15.213,18.611.013,10.287-6.794,18.7-15.162,18.743Zm.018-33.663c-6.364.045-11.533,6.8-11.533,15.053.008,8.224,5.174,14.917,11.515,14.917v1.847l.013-1.847c6.339-.038,11.495-6.787,11.487-15.047C946.5,2409.508,941.353,2402.812,935.028,2402.812Z" fill="#262626"/>
    </g>
    <g id="Group_96" data-name="Group 96">
      <path id="Path_125" data-name="Path 125" d="M919.841,2381.532l13.321,1.449-.162-3.054-12.718-1.176Z"/>
    </g>
    <g id="Group_97" data-name="Group 97">
      <path id="Path_126" data-name="Path 126" d="M934.139,2384.011l-15.357-1.671.728-4.583,14.366,1.327Z" fill="#262626"/>
    </g>
    <g id="Group_98" data-name="Group 98">
      <path id="Path_127" data-name="Path 127" d="M942.966,2452.717a1.421,1.421,0,0,0,.561.043,1.148,1.148,0,0,0,1.014-1.309l-5.229-34.583a1.2,1.2,0,0,0-1.366-.98,1.137,1.137,0,0,0-1.02,1.306l5.232,34.576A1.186,1.186,0,0,0,942.966,2452.717Z"/>
    </g>
    <g id="Group_99" data-name="Group 99">
      <path id="Path_128" data-name="Path 128" d="M943.356,2453.692a2.346,2.346,0,0,1-.618-.086,2.122,2.122,0,0,1-1.488-1.7l-5.234-34.572a2.049,2.049,0,0,1,.4-1.563,2.083,2.083,0,0,1,1.433-.795l.275-.018a2.122,2.122,0,0,1,2.092,1.752l5.233,34.608a2,2,0,0,1-.387,1.534,2.1,2.1,0,0,1-1.429.822Z" fill="#262626"/>
    </g>
    <g id="Group_100" data-name="Group 100">
      <path id="Path_129" data-name="Path 129" d="M930.537,2450.758c-.065-3.219,3.766-5.018,19.434-7.348.588-.089,4.586-.476,5.659.117,1.893,1.045,2.81,4.282,1.759,7.223-.844,2.27-15.21,1.832-21.607,1.508a23.87,23.87,0,0,1-3.026-.16h0C931.378,2451.886,930.57,2451.5,930.537,2450.758Z" fill="#262626"/>
    </g>
    <g id="Group_101" data-name="Group 101">
      <path id="Path_130" data-name="Path 130" d="M945.4,2453.441c-3.66,0-7.276-.144-9.665-.265a24.3,24.3,0,0,1-3.1-.168c-.737-.115-2.938-.451-3.01-2.212-.084-4.093,4.448-5.949,20.215-8.295a28.87,28.87,0,0,1,3.4-.217,5.771,5.771,0,0,1,2.836.439c2.376,1.309,3.354,5.051,2.18,8.338C957.792,2452.3,955.916,2453.441,945.4,2453.441Zm-13.941-2.7c.009,0,.216.262,1.437.451a23.067,23.067,0,0,0,2.891.15c2.408.123,5.989.265,9.613.265,9.907,0,11.054-1.095,11.152-1.218.918-2.588.026-5.287-1.364-6.054a4.839,4.839,0,0,0-1.949-.211,27.442,27.442,0,0,0-3.132.2c-15.659,2.331-18.7,4.119-18.648,6.421Z" fill="#262626"/>
    </g>
    <g id="Group_102" data-name="Group 102">
      <path id="Path_131" data-name="Path 131" d="M868.819,2305.412" fill="#1a171a"/>
    </g>
    <g id="Group_103" data-name="Group 103">
      <path id="Path_132" data-name="Path 132" d="M868.837,2306.789l-164.514,4.827-7.446,118.644,89.593-26.437L878.6,2417.8Zm-160.7,34.474,54.29,2.075,104.533.976,2.232,29.205-80.409,2.211-82.842-.264Zm156.516-27.149,1.827,23.908-103.94.691-53.985-3.958,1.052-16.407Zm-78.578,85-83.1,22.616,2.49-38.782,164.3-1.946,2.174,28.45Z" fill="#262626"/>
    </g>
    <g id="Group_104" data-name="Group 104">
      <path id="Path_133" data-name="Path 133" d="M696.122,2431.2l.063-.988,7.486-119.274.631-.018,165.167-4.844.057.65,9.841,111.884-92.849-14.084Zm8.852-118.913-7.345,117.023,88.79-26.2.154.019,91.263,13.844L868.2,2307.5Zm-2.755,110.368,2.593-40.393.64-.007,164.955-1.953,2.29,29.939-86.571-10.424Zm3.891-39.022-2.385,37.175,82.3-22.4,85.162,10.253-2.06-26.962Zm82.692-7.215-83.6-.265,2.286-35.61,54.968,2.1,105.146.983,2.338,30.562Zm-82.124-1.644,82.107.26,79.661-2.19L866.319,2345l-103.9-.972-53.637-2.048Zm55.868-35.369L707.82,2335.4l1.138-17.719.632-.02,155.7-4.253,1.936,25.3Zm-53.255-5.293,53.3,3.908,103.144-.688-1.722-22.51-153.753,4.2Z" fill="#262626"/>
    </g>
    <g id="Group_105" data-name="Group 105">
      <rect id="Rectangle_79" data-name="Rectangle 79" width="4.625" height="18.827" transform="translate(860.453 2292.116) rotate(-19.821)" fill="#262626"/>
    </g>
    <g id="Group_106" data-name="Group 106">
      <path id="Path_134" data-name="Path 134" d="M866.283,2311l-7.007-19.439,6.081-2.19,7.005,19.441Zm-4.656-18.332,5.764,15.981,2.62-.944-5.761-15.983Z" fill="#262626"/>
    </g>
    <g id="Group_107" data-name="Group 107">
      <path id="Path_135" data-name="Path 135" d="M784.445,2474.35h0a57.687,57.687,0,0,1-9.495-.279,54.914,54.914,0,0,1-12.183-2.766c-27.586-9.625-43.881-39.794-38.738-71.736a74.373,74.373,0,0,1,25.927-45.752c10.95-9.047,23.71-14.2,36.9-14.895a57.3,57.3,0,0,1,9.5.283,54.511,54.511,0,0,1,12.169,2.753c27.594,9.633,43.906,39.808,38.774,71.745a74.544,74.544,0,0,1-25.946,45.75C810.4,2468.5,797.635,2473.651,784.445,2474.35Zm2.7-129.888c-11.994.634-23.63,5.348-33.658,13.635a68.807,68.807,0,0,0-23.98,42.347c-4.715,29.289,10.044,56.883,35.1,65.624a49.132,49.132,0,0,0,10.961,2.486,52.281,52.281,0,0,0,8.585.255c12-.634,23.636-5.347,33.664-13.632a69.03,69.03,0,0,0,24-42.356c4.7-29.28-10.072-56.881-35.134-65.629a49.1,49.1,0,0,0-10.947-2.474A52.214,52.214,0,0,0,787.147,2344.462Z" fill="#262626"/>
    </g>
    <g id="Group_108" data-name="Group 108">
      <path id="Path_136" data-name="Path 136" d="M856.136,2415.359l-8.943-1.236c5.148-32.026-11.152-62.431-38.494-71.972a53.181,53.181,0,0,0-11.914-2.694c-16.128-1.819-32.5,3.372-46.123,14.626a75.913,75.913,0,0,0-26.739,46.371l-8.689-1.386a84.717,84.717,0,0,1,29.541-52.114c15.568-12.864,34.4-18.791,53.041-16.689a62.639,62.639,0,0,1,13.949,3.16C843.327,2344.441,861.992,2378.9,856.136,2415.359Z" fill="#cfc9c6"/>
    </g>
    <g id="Group_109" data-name="Group 109">
      <path id="Path_137" data-name="Path 137" d="M857.672,2417.434l-12.6-1.74.3-1.862c5.02-31.237-10.656-60.648-37.279-69.938a51.487,51.487,0,0,0-11.506-2.6,55.532,55.532,0,0,0-6.141-.344c-13.729,0-27.08,5.035-38.606,14.558a73.886,73.886,0,0,0-26.092,45.241l-.29,1.824-12.337-1.969.291-1.823a86.575,86.575,0,0,1,30.187-53.249c13.878-11.465,30.072-17.524,46.83-17.524a67.94,67.94,0,0,1,7.6.425,64.494,64.494,0,0,1,14.356,3.254c32.407,11.312,51.577,46.626,45.579,83.967Zm-8.379-4.885,5.287.731c4.837-34.908-13.216-67.57-43.423-78.113a60.839,60.839,0,0,0-13.544-3.066,63.926,63.926,0,0,0-7.186-.4c-15.891,0-31.271,5.767-44.478,16.678a82.831,82.831,0,0,0-28.583,49.164l5.047.8a77.648,77.648,0,0,1,27.074-45.686c12.2-10.076,26.359-15.4,40.957-15.4a58.685,58.685,0,0,1,6.55.368,54.947,54.947,0,0,1,12.322,2.79C837.088,2350.1,853.688,2380.246,849.293,2412.549Z" fill="#262626"/>
    </g>
    <g id="Group_110" data-name="Group 110">
      <path id="Path_138" data-name="Path 138" d="M779.853,2397.7c-2.3,3.1-2.561,10.178.677,12.574s8.4,1.756,10.686-1.322c2.3-3.1,2.449-9.677-.776-12.064S782.14,2394.606,779.853,2397.7Z" fill="#262626"/>
    </g>
    <g id="Group_111" data-name="Group 111">
      <path id="Path_139" data-name="Path 139" d="M785.167,2412.646a8.718,8.718,0,0,1-5.182-1.633c-1.71-1.263-2.723-3.721-2.787-6.742a12.126,12.126,0,0,1,1.915-7.119,7.515,7.515,0,0,1,6.175-2.849,9.638,9.638,0,0,1,5.7,1.846c1.705,1.263,2.734,3.62,2.828,6.474a11.285,11.285,0,0,1-1.861,6.875A8.375,8.375,0,0,1,785.167,2412.646Zm.121-16.5a5.694,5.694,0,0,0-4.7,2.1,10.354,10.354,0,0,0-1.557,5.985c.052,2.451.794,4.384,2.039,5.306a6.9,6.9,0,0,0,4.092,1.271,6.631,6.631,0,0,0,5.309-2.4,9.527,9.527,0,0,0,1.5-5.723c-.074-2.285-.835-4.129-2.084-5.055A7.9,7.9,0,0,0,785.288,2396.141Z" fill="#262626"/>
    </g>
    <g id="Group_112" data-name="Group 112">
      <path id="Path_140" data-name="Path 140" d="M950.717,2431.541a46.188,46.188,0,0,1-2.049,7.468c-.184.438-2.168,4.944-6.331,5.529-2.46.345-1.046,3.526,5.347,3.343a10,10,0,0,0,5.781-2.033,5.444,5.444,0,0,0,1.952-1.846,11.671,11.671,0,0,0,1.463-2.137h0c1.644-2.614,3.345-5.886,4.384-7.9C962.775,2431.04,951.2,2428.952,950.717,2431.541Z" fill="#cfc9c6"/>
    </g>
    <g id="Group_113" data-name="Group 113">
      <path id="Path_141" data-name="Path 141" d="M947.157,2448.808c-4.568,0-6.766-1.671-6.873-3.222-.059-.833.516-1.761,1.924-1.957,3.7-.522,5.539-4.793,5.614-4.974a45.193,45.193,0,0,0,1.991-7.282c.165-.878.983-1.925,3.957-1.925,2.607,0,7.024.924,8.23,2.9a2.021,2.021,0,0,1,.08,2.04c-.874,1.692-2.693,5.214-4.424,7.963h0a12.211,12.211,0,0,1-1.541,2.245,6.3,6.3,0,0,1-2.2,2.059,10.858,10.858,0,0,1-6.205,2.139Zm6.613-17.523c-1.566,0-2.1.348-2.156.442a46.542,46.542,0,0,1-2.082,7.6c-.249.593-2.421,5.469-7.069,6.123a.753.753,0,0,0-.383.125c.095.214,1.447,1.4,5.077,1.4l.5-.008a9.056,9.056,0,0,0,5.256-1.85l.247-.129c.083-.029.539-.237,1.523-1.534a11.062,11.062,0,0,0,1.371-1.988c1.735-2.767,3.531-6.243,4.394-7.914.042-.082.05-.124-.018-.237C959.876,2432.4,956.694,2431.285,953.77,2431.285Z" fill="#262626"/>
    </g>
    <g id="Group_114" data-name="Group 114">
      <path id="Path_142" data-name="Path 142" d="M952.373,2309.938l-33.569-1.154-1.205,4.6,36.333,1.258Z" fill="#e4a739"/>
    </g>
    <g id="Group_115" data-name="Group 115">
      <path id="Path_143" data-name="Path 143" d="M1020.114,2257.6c-19.433-19.8-40.374-27.045-40.374-27.045s-9.652,22.109-29.726,33.318c0,0-31.247,17.893-30.52,25.029.789,7.776,6.716,62.1,8.069,74.476.176,1.6-.1,2,.279,2.5,1.67,2.2,8.715,3.456,10.835,2.12,2.545-1.6,3.994-11.607,3.994-11.607s7.678-42.175-1.492-54.69c5.294-6.654,33.192-10.74,35.6-11.34-.2-.152-10.808,55.011-13.7,73.653-2.178,14.038-10.664,50.249-13.774,63.793-.74,3.209-1.444,4.361-1.041,5.611,1.1,3.4,8.735,7.606,13.945,3.194a17.118,17.118,0,0,0,4.107-5.461s11.431-28.7,14.5-40.3a189.128,189.128,0,0,1,9.141-25.278l13.585-36.506h0l16.226-24.727S1039.539,2277.388,1020.114,2257.6Z" fill="#cfc9c6"/>
    </g>
    <g id="Group_116" data-name="Group 116">
      <path id="Path_144" data-name="Path 144" d="M956.974,2440.362h0c-4.948,0-9.486-3.358-10.462-6.371-.445-1.377-.115-2.528.343-4.118.189-.664.418-1.462.652-2.478l1.151-4.989c3.725-16.141,10.662-46.181,12.6-58.672.1-.626,9.813-56.115,13.213-71.052-16.789,3.048-27.178,6.16-30.938,9.264,8.2,14.282,1.264,53.082.955,54.779-.461,3.2-1.879,10.982-4.827,12.839a7.031,7.031,0,0,1-3.731.833c-2.9,0-7.776-1.054-9.559-3.4a3.151,3.151,0,0,1-.587-2.176,8.9,8.9,0,0,0-.056-1.245c-1.1-10.041-7.253-66.429-8.071-74.489-.785-7.728,23.864-22.48,31.441-26.817,19.326-10.791,28.856-32.238,28.952-32.455a1.845,1.845,0,0,1,2.295-1.005c.873.3,21.575,7.619,41.087,27.494,20.289,20.669.032,48.849-.175,49.132l-16.058,24.472-13.511,36.309a189.5,189.5,0,0,0-9.087,25.108c-3.057,11.573-14.1,39.335-14.566,40.509a18.922,18.922,0,0,1-4.631,6.187A9.8,9.8,0,0,1,956.974,2440.362ZM978.513,2291c-.75,2.865-10.83,55.394-13.607,73.3-1.958,12.624-8.914,42.753-12.65,58.938l-1.15,4.985c-.252,1.093-.5,1.956-.705,2.667a4.948,4.948,0,0,0-.377,1.963c.5,1.534,3.638,3.816,6.95,3.816a6.087,6.087,0,0,0,4.045-1.462,15.382,15.382,0,0,0,3.614-4.8c.084-.217,11.4-28.663,14.4-40.018a188.363,188.363,0,0,1,9.245-25.569l13.533-36.388a1.92,1.92,0,0,1,.19-.369l16.227-24.726a52.607,52.607,0,0,0,7.248-15.527c3.111-11.5.863-21.232-6.677-28.912a118.4,118.4,0,0,0-38.115-26c-2.664,5.391-12.309,22.843-29.766,32.59-18.64,10.676-29.875,20.375-29.584,23.232.816,8.047,6.972,64.421,8.071,74.461a12.88,12.88,0,0,1,.071,1.693v.064c.92.835,3.869,1.768,6.457,1.768a4.109,4.109,0,0,0,1.762-.263c.963-.639,2.464-5.554,3.154-10.312.086-.479,7.442-41.6-1.156-53.334a1.847,1.847,0,0,1,.045-2.242c4.4-5.522,20.592-9.062,34.209-11.527,1.212-.219,2.057-.369,2.391-.453a1.847,1.847,0,0,1,2.179,2.43Z" fill="#262626"/>
    </g>
    <g id="Group_117" data-name="Group 117">
      <path id="Path_145" data-name="Path 145" d="M898.4,2235.563l13.713,4.788c-17.08,26.627-44.8,50.735-44.8,50.735s-6.745,2.591-7.109-4.918c-.147-2.935,10.247-5.762,10.247-5.762S888.414,2253.067,898.4,2235.563Z" fill="#cfc9c6"/>
    </g>
    <g id="Group_118" data-name="Group 118">
      <path id="Path_146" data-name="Path 146" d="M864.826,2292.442c-1.959,0-5.287-.809-5.552-6.229-.163-3.274,7.658-5.781,10.59-6.6,1.956-2.985,18.427-28.186,27.732-44.5l.379-.667,15.544,5.424-.63.985c-16.955,26.434-44.7,50.691-44.976,50.934l-.273.165A8.642,8.642,0,0,1,864.826,2292.442Zm33.992-55.754c-9.956,17.353-27.424,43.955-27.6,44.225l-.193.293-.337.091c-4.578,1.246-9.633,3.534-9.57,4.827.148,3.008,1.361,4.47,3.709,4.47a6.891,6.891,0,0,0,2.009-.322c2.083-1.833,27.618-24.554,43.864-49.438Z" fill="#262626"/>
    </g>
    <g id="Group_119" data-name="Group 119">
      <path id="Path_147" data-name="Path 147" d="M927.331,2260.126l-14.5-6.2c-13.1,14.468-37.871,29.693-45.578,34.261-.515-.114-1.055-.23-1.61-.354-3.586-.8-6.963.646-7.561,3.23-.609,2.551.224,7.567,3.791,8.345,2.508.574,5.973-2.273,8.016-4.9C881.244,2290.38,908.637,2279.065,927.331,2260.126Z" fill="#cfc9c6"/>
    </g>
    <g id="Group_120" data-name="Group 120">
      <path id="Path_148" data-name="Path 148" d="M862.552,2300.4h0a3.956,3.956,0,0,1-.887-.1,5.289,5.289,0,0,1-3.351-2.463,10.043,10.043,0,0,1-1.132-7c.575-2.485,3.185-4.158,6.494-4.158a10.064,10.064,0,0,1,2.166.24l1.253.276c7.716-4.591,32.186-19.692,45.049-33.9l.444-.488,16.352,7-.952.965c-18.755,19-46.3,30.4-57.538,34.506C868.516,2297.694,865.359,2300.4,862.552,2300.4Zm1.124-11.869c-2.392,0-4.323,1.126-4.7,2.735a8.132,8.132,0,0,0,.9,5.591,3.432,3.432,0,0,0,2.19,1.645c2.007.46,5.149-2.076,7.091-4.567l.165-.209.249-.091c10.775-3.916,37.537-14.9,56.14-33.2l-12.645-5.408c-13.331,14.454-38.026,29.609-45.346,33.948l-.315.186-1.969-.434A8.021,8.021,0,0,0,863.676,2288.534Z" fill="#262626"/>
    </g>
    <g id="Group_121" data-name="Group 121">
      <path id="Path_149" data-name="Path 149" d="M1026.417,2255c-11.743-13.357-34.594-41.164-74.035-61.285-12.527-6.406-20.276-5.065-24.249.243-15.393-8.854-20.976,10.477-24.753,26.464a36.992,36.992,0,0,1-3.46,7.616c-1.369,2.25-7.179,4.457-7.154,7.615.033,4.7,13.423,9.792,17.77,9.694,2.029-.051,8.454-12.127,9.317-13.757,0-.008,8.884.075-2.163,14.449-1.972,2.565-7.749,4.476-7.154,8.309.9,5.794,14.311,9.269,20.094,7.993,2.434-.53,5.807-11.089,6.861-13.071,1.961-3.739,3.611-7.178,5.02-10.363,1.917,5.262,6.412,8.964,16.134,7.779,0,0-7.867,13.8.586,16.2C974.692,2267.274,1043.112,2273.993,1026.417,2255Z" fill="#262626"/>
    </g>
    <g id="Group_122" data-name="Group 122">
      <path id="Path_150" data-name="Path 150" d="M1003.589,2268.637h0c-16.184,0-36.5-2.564-44.607-4.865a5.805,5.805,0,0,1-4.04-3.441c-1.608-3.93.778-9.8,2.114-12.568-7.15.483-11.966-1.739-14.549-6.6-1.273,2.775-2.681,5.641-4.2,8.538-.251.474-.689,1.583-1.193,2.867-2.269,5.767-4.173,10.215-6.284,10.675a14.093,14.093,0,0,1-3,.285c-7.016,0-17.331-3.438-18.2-9.037-.476-3.077,2.2-4.993,4.57-6.686a13.6,13.6,0,0,0,2.765-2.323c5.747-7.478,5.667-10.54,5.105-11.7a2.367,2.367,0,0,0-1.7-1.2c-7.271,13.622-9.177,13.672-9.811,13.686h0c-4.416,0-18.669-5.013-18.71-10.6-.017-2.412,2.411-4.171,4.553-5.722a11.432,11.432,0,0,0,2.734-2.379,36.061,36.061,0,0,0,3.353-7.349c3.36-14.223,7.833-29.4,18.46-29.4a14.953,14.953,0,0,1,6.951,1.966c4.818-5.675,13.505-5.709,24.9.118,37.221,18.989,59.883,44.97,72.061,58.93l2.246,2.566c2.606,2.968,3.421,5.595,2.42,7.809C1027.6,2266.471,1018.867,2268.637,1003.589,2268.637Zm-43.243-23.082-.905,1.588c-.045.082-4.581,8.145-2.8,12.494a4.013,4.013,0,0,0,2.842,2.369c6.907,1.957,26.588,4.792,44.106,4.792,19.005,0,23.361-3.353,24.265-5.351.676-1.5-.037-3.463-2.127-5.838l-2.25-2.57c-12.094-13.868-34.6-39.676-71.512-58.5-10.851-5.55-18.947-5.566-23.094-.026l-.488.652-.706-.405a13.764,13.764,0,0,0-6.729-2.106c-9.284,0-13.474,14.446-16.67,27.985a38.089,38.089,0,0,1-3.574,7.889,12.174,12.174,0,0,1-3.227,2.907c-1.781,1.291-3.8,2.753-3.79,4.217.028,3.8,12.263,8.782,16.722,8.782.977-.3,4.235-4.965,8.636-13.27l.257-.489h.561a4.439,4.439,0,0,1,3.847,2.279c1.367,2.775-.365,7.242-5.291,13.651a14.817,14.817,0,0,1-3.149,2.7c-2.123,1.517-4.13,2.95-3.823,4.91.671,4.338,10.25,7.478,16.381,7.478a12.34,12.34,0,0,0,2.607-.24c1.325-.288,3.971-7.019,4.968-9.553.547-1.391.98-2.492,1.28-3.052,1.842-3.516,3.523-6.984,4.992-10.3l.922-2.087.781,2.145c2.117,5.823,7.1,8.164,15.157,7.182Z" fill="#262626"/>
    </g>
    <g id="Group_123" data-name="Group 123">
      <path id="Path_151" data-name="Path 151" d="M938.981,2193.21c-1.516-.7-5.058-2.3-8.53-3.865a12.1,12.1,0,0,0,4.524-5.083c-5.563-3.841-14.343-11.778-22.241-11.617l-3.771-1.192c-.174.623-.909,4.777-.993,5.437-.921,7.808-.024,15.378,7.826,16.434a17.667,17.667,0,0,0,5.5-.243,54.853,54.853,0,0,0,4.841,9.059,13.024,13.024,0,0,0,3.9,3.185c7.33,2.581,9.944-3.489,10.561-6.611C940.876,2197.321,940.8,2194.058,938.981,2193.21Z" fill="#cfc9c6"/>
    </g>
    <g id="Group_124" data-name="Group 124">
      <path id="Path_152" data-name="Path 152" d="M933.339,2206.866h0a10.942,10.942,0,0,1-3.614-.674,13.716,13.716,0,0,1-4.3-3.476,52.269,52.269,0,0,1-4.669-8.608,17.984,17.984,0,0,1-5.075.128c-10.512-1.414-9.087-13.487-8.619-17.453.086-.668.825-4.87,1.022-5.575l.253-.918,4.539,1.435h.1c6.675,0,13.6,5.168,19.157,9.319,1.215.91,2.347,1.756,3.371,2.463l.606.418-.276.683a11.848,11.848,0,0,1-3.58,4.538c2.985,1.346,5.809,2.623,7.12,3.233,2.385,1.113,2.461,4.873,2.125,6.52C940.731,2202.747,938.189,2206.866,933.339,2206.866Zm-11.5-14.822.295.662a54.18,54.18,0,0,0,4.715,8.855,12.39,12.39,0,0,0,3.484,2.9,9.136,9.136,0,0,0,3.006.573c4.824,0,6.136-5.408,6.35-6.5.261-1.271.111-3.927-1.1-4.492-1.512-.7-5.048-2.3-8.516-3.86l-1.491-.671,1.347-.926a12.039,12.039,0,0,0,3.882-4.017c-.864-.616-1.8-1.313-2.787-2.051-5.342-3.99-11.992-8.958-18.057-8.958l-.369,0-2.948-.931c-.275,1.415-.709,3.887-.769,4.374-1.146,9.707,1.088,14.6,7.037,15.406a16.644,16.644,0,0,0,5.206-.236Z" fill="#262626"/>
    </g>
    <g id="Group_125" data-name="Group 125">
      <path id="Path_153" data-name="Path 153" d="M960.241,2188.788c-6.636-2.526-6.633-1.77-9.1-8.291s-11.758-5.249-15.2-7.633-5.329-4.108-13.76-7.095-7.587,1-12.971,2.69-.622,4.182-.622,4.182a19.214,19.214,0,0,1,8.252,3.888c3.322,2.936,4.574,8.052,6.808,8.476,2.079.4,2.959,3.492,4.915,5.089a16.791,16.791,0,0,0,4.8,3.316,19.96,19.96,0,0,0,6.325,2.524,5.067,5.067,0,0,0,2.86.118c2.628-1.15,8.32,6.166,11.493,9.541,8.47,9.006,10.009-6.05,15.288-.681,4.495,4.573,11.956-2.67,11.77-7.712S966.878,2191.317,960.241,2188.788Z" fill="#262626"/>
    </g>
    <g id="Group_126" data-name="Group 126">
      <path id="Path_154" data-name="Path 154" d="M959.1,2209.455c-1.811,0-3.685-1.058-5.729-3.231-.581-.615-1.242-1.36-1.951-2.16-2.394-2.7-6.4-7.215-8.262-7.215a.606.606,0,0,0-.244.046,5.563,5.563,0,0,1-3.442-.069,20.559,20.559,0,0,1-6.568-2.619c-1.124-.583-3.891-2.1-5.005-3.465a12.37,12.37,0,0,1-2.109-2.547c-.783-1.139-1.459-2.123-2.319-2.285-1.586-.3-2.605-2.026-3.785-4.02a18.947,18.947,0,0,0-3.46-4.673,18.3,18.3,0,0,0-7.805-3.671l-.263-.09c-.433-.227-2.583-1.443-2.427-3.18s2.445-2.458,3.2-2.695a11.23,11.23,0,0,0,3.605-1.972,7.135,7.135,0,0,1,4.692-1.837,16.086,16.086,0,0,1,5.255,1.133c7.554,2.673,9.99,4.4,12.813,6.39l1.163.815a14.667,14.667,0,0,0,4.807,1.488c3.985.818,8.944,1.834,10.737,6.574,2.022,5.357,2.022,5.357,6.458,6.977.619.226,1.314.48,2.1.781a60.907,60.907,0,0,0,7.657,2.027c6.708,1.495,13.641,3.042,13.794,7.208a10.357,10.357,0,0,1-3.178,7.045,9,9,0,0,1-6.177,3.072h0a5.5,5.5,0,0,1-3.986-1.727,2.454,2.454,0,0,0-1.622-.914c-.841,0-1.774.918-2.764,1.892C962.9,2207.9,961.325,2209.455,959.1,2209.455Zm-15.942-14.443c2.488,0,5.7,3.393,9.635,7.83.7.787,1.347,1.519,1.915,2.123,1.654,1.759,3.133,2.653,4.392,2.653,1.471,0,2.705-1.218,3.9-2.394,1.208-1.191,2.458-2.422,4.053-2.422a4.12,4.12,0,0,1,2.932,1.468,3.664,3.664,0,0,0,2.677,1.174h0a7.2,7.2,0,0,0,4.852-2.508,8.645,8.645,0,0,0,2.669-5.7c-.1-2.75-6.9-4.266-12.36-5.482a61.4,61.4,0,0,1-7.908-2.106c-.781-.295-1.471-.548-2.082-.771-4.859-1.776-5.28-2.053-7.549-8.055-1.432-3.79-5.657-4.656-9.385-5.421a15.606,15.606,0,0,1-5.484-1.779l-1.177-.826c-2.821-1.992-5.051-3.568-12.366-6.159a14.672,14.672,0,0,0-4.642-1.026,5.422,5.422,0,0,0-3.6,1.476,12.983,12.983,0,0,1-4.15,2.251c-1.538.483-1.908.959-1.923,1.1-.024.285.624.921,1.341,1.328a19.906,19.906,0,0,1,8.546,4.073,20.51,20.51,0,0,1,3.823,5.115c.871,1.477,1.775,3,2.547,3.149,1.6.3,2.561,1.7,3.488,3.05a10.622,10.622,0,0,0,1.836,2.229l.148.15a16.456,16.456,0,0,0,4.495,3.063,19.313,19.313,0,0,0,6.052,2.431,5.355,5.355,0,0,0,2.343.185A2.455,2.455,0,0,1,943.16,2195.012Z" fill="#262626"/>
    </g>
    <g id="Group_127" data-name="Group 127">
      <path id="Path_155" data-name="Path 155" d="M885.726,2223.282" fill="#fff"/>
    </g>
    <g id="Group_128" data-name="Group 128">
      <path id="Path_156" data-name="Path 156" d="M835.515,2248.5l-13.814-5.081.672-9.2,10.485,2.082Z" fill="#262626"/>
    </g>
    <g id="Group_129" data-name="Group 129">
      <path id="Path_157" data-name="Path 157" d="M856.439,2259.564a7.368,7.368,0,0,1-7.335-.51,7.74,7.74,0,0,1-1.32-1.062,3.268,3.268,0,0,0,1.635-1.782l.085-.186a2.169,2.169,0,0,0,.107-.718,2.074,2.074,0,0,0-.645-1.464,2.121,2.121,0,0,0-1.492-.58,2.094,2.094,0,0,0-2.053,2.138,3.827,3.827,0,0,0,.692,2.049,6.644,6.644,0,0,1-2.758-.4c-1.344-.579-2.326-2.618-1.489-5.867a4.585,4.585,0,0,0-1.97-5.067,4.758,4.758,0,0,0-3.972-.934,2.9,2.9,0,0,0-1.366.933l.441,1.077a2.106,2.106,0,0,1,1.219-1.093,3.912,3.912,0,0,1,3.171.834,3.673,3.673,0,0,1,1.545,4.012c-.981,3.8.317,6.247,2.041,6.99a7.412,7.412,0,0,0,3.809.4,8.77,8.77,0,0,0,1.8,1.535,8.594,8.594,0,0,0,3.919,1.37,8.473,8.473,0,0,0,4.348-.8Zm-9.307-2.334a3.369,3.369,0,0,1-.747-1.85,1.125,1.125,0,0,1,1.108-1.154,1.032,1.032,0,0,1,.124,0,1.115,1.115,0,0,1,.681.309,1.1,1.1,0,0,1,.35.785,1.349,1.349,0,0,1-.037.343l-.075.162a2.376,2.376,0,0,1-1.333,1.373A.666.666,0,0,0,847.132,2257.23Z" fill="#262626"/>
    </g>
    <g id="Group_130" data-name="Group 130">
      <path id="Path_158" data-name="Path 158" d="M751.718,2217.11l.513,2.353,1.372-.239s-.269-1.546-.407-2.315a1.575,1.575,0,0,0-.071-.255l-1.422.156C751.7,2216.973,751.718,2217.11,751.718,2217.11Z" fill="none"/>
    </g>
    <g id="Group_131" data-name="Group 131">
      <path id="Path_159" data-name="Path 159" d="M771.062,2269.956l1.173-1.123-.382-1.651-.977.166-2.213-10.666-.012-1.6.935-.92-.615-1.6-.631.112-.9-6.3,1.065-.976-.135-.765-.992.071-.684.019a4.282,4.282,0,0,0,.37-1.544c-.022-.659-.9-1.23-.9-1.23a.9.9,0,0,1-.222-.19.716.716,0,0,0,.082-.351,3.212,3.212,0,0,0-.254-.768l0-.176.938-.917-.176-.994-.976.166-.995-6.967,1.064-.974-.133-.767-1,.071-.681.025a4.363,4.363,0,0,0,.369-1.552c-.025-.661-.9-1.223-.9-1.223a.977.977,0,0,1-.223-.193.721.721,0,0,0,.075-.35c-.012-.264-.377-1.2-.543-1.172,0,0-.121-.073-.15,1.095a.691.691,0,0,0,.236.507c-.055.063-.119.139-.2.226a1.774,1.774,0,0,0-.436,1.435,14.112,14.112,0,0,0,.708,1.407l-1.18.2,0,.786.763.577-1.689.292-.557-2.675.8-.137-.205-1.153-.881-.339a20.778,20.778,0,0,0-1.394-4.3,35.747,35.747,0,0,0-3.378-3.042l.979-.169-.124-.737-.722-.061a18.931,18.931,0,0,0-.5-2.621,15.167,15.167,0,0,0-.554-1.821l.458-.085-.122-.7-.739-.2-.17-.962.383,3.434-.8.087a1.575,1.575,0,0,1,.071.255c.138.769.407,2.315.407,2.315l-1.372.239-.513-2.353s-.015-.137-.015-.3l-.516.052-.852-2.149.778-1.07,2.43-.51-1.137.077-.361-2.09-.6.106-.056,2.161-.925.28.111.619-1,.372.206,1.166.618-.108a8,8,0,0,0,.177,1.869l.39,2.422-.07.014-.786.563.128.738,1.3-.226a38.2,38.2,0,0,0-2.48,4.165c-.333.948.1,4.531.1,4.531l-.786.634.2,1.151.871-.152.376,2.7-1.835.321.577-.808-.28-.74-1.279.236a13.338,13.338,0,0,0,.226-1.573,1.727,1.727,0,0,0-.958-1.187c-.116-.061-.209-.1-.287-.145a.648.648,0,0,0,.064-.558c-.448-1.087-.547-.978-.547-.978-.182.032-.217,1.043-.144,1.292a.663.663,0,0,0,.2.295.769.769,0,0,1-.161.268s-.7.836-.49,1.467a4.2,4.2,0,0,0,.937,1.32l-.714.224-1.048.278.132.771,1.444.533,1.458,6.888-1.073.188.183,1,1.288.529.563,1.5.023.163a1.576,1.576,0,0,0-.306,1.222,3.186,3.186,0,0,0,.635,1l.058.389-.474.152-1.047.277.133.773,1.44.54.676,3.185.452,3.071-1.061.188.195,1.688,1.609.63.046,0,.508,1.346,1.586,10.775-1.06.185.2,1.687,1.6.635,5.2,21.477,15.487-3.811ZM750.7,2238.681s-.416-2.2.968-2.788c0,0,2.232-.566,2.729,2.282l.942,5.348-3.366.971Zm2.389,16.94-.559-5.947s-.414-2.2.969-2.791c0,0,2.23-.565,2.727,2.287.336,1.9.945,5.359.945,5.359Zm6.324,11.82-3.566.794-1.263-6.52s-.456-2.463.919-3.1c0,0,2.221-.584,2.782,2.61C758.662,2263.356,759.416,2267.441,759.416,2267.441Zm-2.038-29.925s-.412-2.2.973-2.792c0,0,2.226-.559,2.725,2.286.333,1.9,1.007,5.731,1.007,5.731l-3.429.591Zm1.924,10.98s-.413-2.2.973-2.787c0,0,2.228-.566,2.729,2.285.331,1.893,1,5.724,1,5.724l-3.872.407Zm3.837,18.5-1.4-6.525s-.461-2.466.918-3.1c0,0,2.223-.587,2.784,2.616.371,2.129,1.55,6.342,1.55,6.342Z" fill="#262626"/>
    </g>
    <g id="Group_132" data-name="Group 132">
      <path id="Path_160" data-name="Path 160" d="M752.1,2215.99a.819.819,0,0,0-.4.82l1.422-.156A.875.875,0,0,0,752.1,2215.99Z"/>
    </g>
    <g id="Group_133" data-name="Group 133">
      <path id="Path_161" data-name="Path 161" d="M750.335,2214.713l.852,2.149.516-.052a.819.819,0,0,1,.4-.82.875.875,0,0,1,1.022.664l.8-.087-.383-3.434-2.43.51Z"/>
    </g>
    <g id="Group_134" data-name="Group 134">
      <path id="Path_162" data-name="Path 162" d="M865.466,2306.035l4.328,6.616,102.827,3.554,1.229-6.451Z" fill="#262626"/>
    </g>
    <g id="Group_135" data-name="Group 135">
      <path id="Path_163" data-name="Path 163" d="M743.466,2274.229a39.135,39.135,0,0,0-5.229-3.333c-.669-3.9-1.869-6.46-6.607-5.707a23.025,23.025,0,0,0-6.525,2.308c-.563-3.066-1.588-5.444-4.293-5.016-4.338.7-9.555,8.952-9.152,14.1-1.265-1.148-2.493-1.607-3.919-.345-2.474,2.19-3.832,7.459-1.351,10.267s4.037,5.5,6.51,3.312a7.138,7.138,0,0,0,.938-1.021c-.309,4.276-1.131,7.629,3.25,7.884a11.657,11.657,0,0,0,4.457-.68l-1.567,11.9s4.407-.1,4.461-.992c.279-5.052.714-9.095,1.188-12.295a14.476,14.476,0,0,0,1.932-1.173c.732,2.691,2.088,4.513,4.744,4.088,3.264-.518,7.25-4.237,6.659-7.935-.005-.039-.008-.077-.016-.116,2.488.854,4.706.591,6.267-1.765C747.618,2284.1,747.572,2276.952,743.466,2274.229Z" fill="#cfc9c6"/>
    </g>
    <g id="Group_136" data-name="Group 136">
      <path id="Path_164" data-name="Path 164" d="M729.106,2304.109c.044,2.393-.011,3.75.085,4.957.052.6.755.965,1.79.408,1.6-.863-.8-7.778,1.6-12.1s4.027-2.756,4.2-1.838a62.967,62.967,0,0,1,.031,7.783s-.249,2.759.438,2.746,1.728-.177,1.746-.867c.063-2.251.407-10.844-1.251-12.212-.589-.482-1.288-.351-3.22-.218-1.986.137-3.528,2.278-4.276,3.509C729.591,2297.364,729.023,2299.15,729.106,2304.109Z" fill="#262626"/>
    </g>
    <g id="Group_137" data-name="Group 137">
      <path id="Path_165" data-name="Path 165" d="M736.339,2292.834l.065-5.042a2.131,2.131,0,0,1,1.751-1.943c1.656-.285,29.824-1.285,29.824-1.285l1.657-.027s2.519-.024,2.467,1.874c-.073,2.577,2.394,11.236-.361,12.23-4.828,1.747-6.591,3.949-8.831,4.126-.982.076-7.691.29-7.691.29l-13.083.042-9.732-.307s-1.586.021-1.668-.3c-.095-.386.33-.845,1.082-1.4a17.473,17.473,0,0,0,3.584-3.289C736.646,2296,736.339,2292.834,736.339,2292.834Z" fill="#cfc9c6"/>
    </g>
    <g id="Group_138" data-name="Group 138">
      <path id="Path_166" data-name="Path 166" d="M742.124,2304.023h-.014l-9.734-.307h-.006c-1.381,0-2.318-.171-2.525-.991-.277-1.116.872-1.962,1.426-2.369a16.079,16.079,0,0,0,3.37-3.07,7.871,7.871,0,0,0,.779-4.363l.062-5.144a3.041,3.041,0,0,1,2.518-2.842c1.667-.287,27.055-1.193,29.945-1.3l1.678-.027h0a4.024,4.024,0,0,1,2.716.993,2.467,2.467,0,0,1,.688,1.829,24.018,24.018,0,0,0,.368,3.206c.628,4.17,1.341,8.9-1.339,9.869a28.123,28.123,0,0,0-5.208,2.563,9.019,9.019,0,0,1-3.867,1.613c-.991.078-7.458.284-7.735.294Zm-9.8-2.154h.013l9.809.307,13.066-.042c.041,0,6.673-.215,7.623-.286a7.79,7.79,0,0,0,3.063-1.359,29.7,29.7,0,0,1,5.527-2.716c1.256-.453.5-5.454.138-7.855a24.2,24.2,0,0,1-.387-3.533.6.6,0,0,0-.165-.49,2.275,2.275,0,0,0-1.376-.434l-1.647.026c-11.279.4-28.512,1.07-29.681,1.271a1.183,1.183,0,0,0-.986,1.088l-.062,5c.008.042.319,3.426-1.1,5.485a17.119,17.119,0,0,1-3.795,3.51C732.354,2301.851,732.339,2301.859,732.328,2301.869Z" fill="#262626"/>
    </g>
    <g id="Group_139" data-name="Group 139">
      <path id="Path_167" data-name="Path 167" d="M763.975,2303.125c.041,2.4-.013,3.75.087,4.96.047.595.753.963,1.787.405,1.6-.862-.792-7.777,1.6-12.094s4.029-2.756,4.2-1.839a63.313,63.313,0,0,1,.029,7.785s-.246,2.756.441,2.748,1.725-.177,1.743-.874c.067-2.248.413-10.842-1.25-12.207-.587-.484-.685-.742-2.612-.606-1.989.134-4.135,2.664-4.884,3.9C764.458,2296.381,763.888,2298.166,763.975,2303.125Z" fill="#262626"/>
    </g>
    <g id="Group_140" data-name="Group 140">
      <line id="Line_4" data-name="Line 4" y1="0.231" x2="36.233" transform="translate(736.065 2297.044)" fill="#fff"/>
    </g>
    <g id="Group_141" data-name="Group 141">
      <rect id="Rectangle_80" data-name="Rectangle 80" width="36.233" height="1.846" transform="matrix(1, -0.006, 0.006, 1, 736.06, 2296.35)" fill="#262626"/>
    </g>
    <g id="Group_142" data-name="Group 142">
      <path id="Path_168" data-name="Path 168" d="M831.456,2298.468c-6.7-.111-13.748.329-19.965,0-16.876-.894,20.818-4.381,17.8-10.915s-36.85-3.355-43.447-3.311c-6.006.039-17.814,3.634-6,2.5,24.245-2.339,40.654.192,38.925,2.731-2.923,4.288-46.043,5.8-25.848,12.923,1.961.692,4.961.809,9.692,1.154a183.638,183.638,0,0,0,26.9-.187,143.164,143.164,0,0,1,16.14-.042c9.792.789,12.041,2.038,7.269,4.04,0,0,1.08,1.69,4.386.113C861.177,2305.621,862.267,2296.863,831.456,2298.468Z" fill="#cfc9c6"/>
    </g>
  </g>
</svg>
