<svg xmlns="http://www.w3.org/2000/svg" width="675.377" height="271.058" viewBox="0 0 675.377 271.058">
  <g id="Group_69" data-name="Group 69" transform="translate(-555.217 -2885.232)">
    <g id="Group_65" data-name="Group 65">
      <path id="Path_70" data-name="Path 70" d="M1048.941,3009.25c3.03-.882,6.091-1.671,9.079-2.676,2.308-.777,3.344-2.3,2.552-4.924-3.214-10.655-6.252-21.363-9.59-31.978a4.394,4.394,0,0,0-3.457-2.214c-10.661.336-19.635,9.627-19.482,19.889A21.8,21.8,0,0,0,1048.941,3009.25Z" fill="#fff"/>
      <path id="Path_71" data-name="Path 71" d="M1048.941,3009.25a21.8,21.8,0,0,1-20.9-21.9c-.153-10.262,8.821-19.553,19.482-19.889a4.394,4.394,0,0,1,3.457,2.214c3.338,10.615,6.376,21.323,9.59,31.978.792,2.623-.244,4.147-2.552,4.924C1055.032,3007.579,1051.971,3008.368,1048.941,3009.25Z"/>
      <path id="Path_72" data-name="Path 72" d="M835.224,2922.139l-19.634,24.85c-5.1-5.442-10.82-10.625-15.381-16.684-4.513-5.994-2.583-14.9,3.152-19.73a15.425,15.425,0,0,1,20.409.079C827.83,2914.251,831.46,2918.333,835.224,2922.139Z" fill="#cfc9c6"/>
      <path id="Path_73" data-name="Path 73" d="M1041.951,2946.939c-6.668-8.453-13.991-15.483-20.688-23.972,4.87-4.252,10.664-13.378,19.09-15.6a15.347,15.347,0,0,1,16.438,6.024c3.57,5.005,4.128,12.757.254,17.515C1052.4,2936.6,1046.974,2941.667,1041.951,2946.939Z" fill="#cfc9c6"/>
    </g>
    <path id="Path_74" data-name="Path 74" d="M1075.494,2910.733a31.178,31.178,0,0,0-51.471-11.669c-4.754,4.634-9.331,9.449-14.068,14.26-1.339-.92-2.318-1.564-3.267-2.249-12.6-9.081-26.1-16.175-41.177-20.419a136.3,136.3,0,0,0-55.64-4.252c-22.085,2.971-42.433,10.684-60.368,24.152-2.143,1.609-3.384,1.162-5.019-.551-3.584-3.754-7.005-7.771-11.084-10.912-4.015-3.091-8.474-6.28-13.243-7.589-12.612-3.463-24.159-.911-32.7,9.663-8.179,10.122-9.644,21.652-3.641,33.164,2.807,5.384,7.6,9.808,11.855,14.32a9.065,9.065,0,0,0,5.866,2.39c2.067.044,4.134.066,6.2.087a117.2,117.2,0,0,0-19.114,64.324v38.98q-.555,12.354-.235,24.78c.167,6.372.074,6.37,6.339,7.223.22.03.408.3.913.7,0,7.331-.025,14.9.005,22.467q.093,23.343.233,46.685h263.605c.085-1.588.241-3.177.243-4.765q.024-30.14.011-60.279v-4.7c1.19-.17,1.83-.312,2.475-.346,5.388-.285,5.565-.284,5.4-5.673q-.2-6.593-.425-13.185v-51.892a117.2,117.2,0,0,0-20.614-66.563,37.315,37.315,0,0,1,4.9.286c7.645.97,3.62,6.961,7.808,2.414.385-.417,9.2-9.286,9.585-9.738.43-.508.9-.983,1.305-1.51C1077.063,2931.392,1079.3,2921.465,1075.494,2910.733ZM800.209,2930.3c-4.513-5.994-2.582-14.9,3.152-19.73a15.425,15.425,0,0,1,20.409.079c3.957,3.506,7.506,7.47,11.168,11.193a118.441,118.441,0,0,0-22.185,22.19C808.445,2939.632,803.939,2935.261,800.209,2930.3Zm145.464,193.412c-2.561,1.621-4.177,1.738-6.259-.864-4.286-5.361-8.965-10.409-13.78-15.926-5.044,5.8-9.786,11.158-14.414,16.615-1.331,1.569-2.433,1.9-4.381.9-16.611-8.549-23.578-27.678-19.6-44.453h32.74q2.823,3.238,5.68,6.514l5.667-6.514H964.25c.24,1.106.437,2.232.576,3.385C966.912,3100.646,960.595,3114.276,945.673,3123.717ZM1057.044,2930.9c-4.076,5.006-8.755,9.519-13.236,14.114a118.451,118.451,0,0,0-19.518-20.466l-2-2.538c5.8-4.74,9.638-12.422,18.064-14.649a15.347,15.347,0,0,1,16.438,6.024C1060.361,2918.391,1060.92,2926.143,1057.044,2930.9Z" fill="#262626"/>
    <g id="Group_67" data-name="Group 67">
      <g id="Group_66" data-name="Group 66">
        <path id="Path_75" data-name="Path 75" d="M617.629,3024.485h-23.9l-18.316-28.405v28.405h-19.2v-73.852H586.09a29.344,29.344,0,0,1,10.774,1.812,20.288,20.288,0,0,1,12.1,12.194,25.262,25.262,0,0,1,1.518,8.815q0,8.425-4.065,13.664t-12,7.1Zm-42.215-40.843h3.624q5.679,0,8.717-2.352a9.041,9.041,0,0,0,0-13.517q-3.036-2.35-8.717-2.35h-3.624Z" fill="#cfc9c6" stroke="#262626" stroke-miterlimit="10" stroke-width="2"/>
        <path id="Path_76" data-name="Path 76" d="M664.35,2966.892H641.528v12.342h21.549v16.259H641.528v12.733H664.35v16.259H622.331v-73.852H664.35Z" fill="#cfc9c6" stroke="#262626" stroke-miterlimit="10" stroke-width="2"/>
        <path id="Path_77" data-name="Path 77" d="M713.42,2969.537a23.735,23.735,0,0,0-6.269-3.771,16.648,16.648,0,0,0-6.073-1.225,9.852,9.852,0,0,0-6.072,1.763,5.5,5.5,0,0,0-2.351,4.6,4.579,4.579,0,0,0,1.176,3.233,10.245,10.245,0,0,0,3.085,2.2,26.2,26.2,0,0,0,4.31,1.616q2.4.686,4.75,1.47,9.4,3.135,13.762,8.374t4.358,13.664a26.6,26.6,0,0,1-1.91,10.284,21.432,21.432,0,0,1-5.583,7.885,25.732,25.732,0,0,1-9.011,5.093,37.559,37.559,0,0,1-12.1,1.812,44.478,44.478,0,0,1-25.956-8.326l8.227-15.475a33.344,33.344,0,0,0,8.521,5.681,20.477,20.477,0,0,0,8.326,1.861q4.7,0,7-2.155a6.673,6.673,0,0,0,1.714-7.786,6.244,6.244,0,0,0-1.958-2.253,15.744,15.744,0,0,0-3.575-1.91q-2.2-.882-5.339-1.959-3.723-1.176-7.3-2.6a22.936,22.936,0,0,1-6.366-3.771,17.488,17.488,0,0,1-4.506-5.926,20.949,20.949,0,0,1-1.714-9.061,26.161,26.161,0,0,1,1.812-9.941,22.1,22.1,0,0,1,5.093-7.64,22.709,22.709,0,0,1,8.032-4.946,30.34,30.34,0,0,1,10.627-1.763,46.534,46.534,0,0,1,11.46,1.518,50.584,50.584,0,0,1,11.46,4.457Z" fill="#cfc9c6" stroke="#262626" stroke-miterlimit="10" stroke-width="2"/>
        <path id="Path_78" data-name="Path 78" d="M752.011,3024.485h-19.2v-73.852h30.559q12.438,0,19.051,6.465t6.611,18.217q0,11.754-6.611,18.219T763.372,3000H752.011Zm0-39.962h6.366q10.578,0,10.578-9.208t-10.578-9.207h-6.366Z" fill="#cfc9c6" stroke="#262626" stroke-miterlimit="10" stroke-width="2"/>
        <path id="Path_79" data-name="Path 79" d="M837.91,2966.892H815.089v12.342h21.548v16.259H815.089v12.733H837.91v16.259H795.891v-73.852H837.91Z" fill="#cfc9c6" stroke="#262626" stroke-miterlimit="10" stroke-width="2"/>
        <path id="Path_80" data-name="Path 80" d="M845.843,3015.082a11.46,11.46,0,1,1,22.037,4.457,11.261,11.261,0,0,1-6.121,6.122,11.711,11.711,0,0,1-8.913,0,11.25,11.25,0,0,1-6.122-6.122A11.415,11.415,0,0,1,845.843,3015.082Z" fill="#cfc9c6" stroke="#262626" stroke-miterlimit="10" stroke-width="2"/>
        <path id="Path_81" data-name="Path 81" d="M895.809,2966.892v57.593h-19.2v-57.593H860.842v-16.259h50.736v16.259Z" fill="#cfc9c6" stroke="#262626" stroke-miterlimit="10" stroke-width="2"/>
        <path id="Path_82" data-name="Path 82" d="M939.116,2950.633v40.158q0,3.234.245,6.612a18.074,18.074,0,0,0,1.469,6.122,10.176,10.176,0,0,0,3.869,4.456q2.645,1.716,7.444,1.714t7.4-1.714a10.626,10.626,0,0,0,3.869-4.456,17.462,17.462,0,0,0,1.518-6.122q.243-3.38.245-6.612v-40.158h19.1v42.8q0,17.241-7.885,25.172t-24.242,7.934q-16.359,0-24.291-7.934t-7.934-25.172v-42.8Z" fill="#cfc9c6" stroke="#262626" stroke-miterlimit="10" stroke-width="2"/>
        <path id="Path_83" data-name="Path 83" d="M986.609,3015.082a11.458,11.458,0,1,1,19.588,8.13,11.3,11.3,0,0,1-3.672,2.449,11.711,11.711,0,0,1-8.913,0,11.25,11.25,0,0,1-6.122-6.122A11.415,11.415,0,0,1,986.609,3015.082Z" fill="#cfc9c6" stroke="#262626" stroke-miterlimit="10" stroke-width="2"/>
        <path id="Path_84" data-name="Path 84" d="M1007.191,2987.559a38.054,38.054,0,0,1,24.34-36,46.937,46.937,0,0,1,32.959,0,38.936,38.936,0,0,1,12.978,8.276,37.9,37.9,0,0,1,8.473,12.39,40.216,40.216,0,0,1,0,30.658,37.882,37.882,0,0,1-8.473,12.39,38.927,38.927,0,0,1-12.978,8.277,46.952,46.952,0,0,1-32.959,0,38.2,38.2,0,0,1-24.34-36Zm20.079,0a19.646,19.646,0,0,0,1.666,8.13,20.331,20.331,0,0,0,11.117,10.725,21.36,21.36,0,0,0,22.625-4.261,20.174,20.174,0,0,0,4.555-6.464,20.68,20.68,0,0,0,0-16.259,20.185,20.185,0,0,0-4.555-6.465,21.539,21.539,0,0,0-22.625-4.261,20.329,20.329,0,0,0-11.117,10.726A19.65,19.65,0,0,0,1027.27,2987.559Z" fill="#cfc9c6" stroke="#262626" stroke-miterlimit="10" stroke-width="2"/>
        <path id="Path_85" data-name="Path 85" d="M1133.7,2969.537a23.735,23.735,0,0,0-6.269-3.771,16.647,16.647,0,0,0-6.072-1.225,9.853,9.853,0,0,0-6.073,1.763,5.5,5.5,0,0,0-2.351,4.6,4.579,4.579,0,0,0,1.176,3.233,10.258,10.258,0,0,0,3.085,2.2,26.228,26.228,0,0,0,4.31,1.616q2.4.686,4.75,1.47,9.4,3.135,13.762,8.374t4.358,13.664a26.6,26.6,0,0,1-1.91,10.284,21.431,21.431,0,0,1-5.583,7.885,25.721,25.721,0,0,1-9.011,5.093,37.559,37.559,0,0,1-12.1,1.812,44.479,44.479,0,0,1-25.956-8.326l8.227-15.475a33.333,33.333,0,0,0,8.522,5.681,20.471,20.471,0,0,0,8.326,1.861q4.7,0,7-2.155a6.557,6.557,0,0,0,2.3-4.9,6.624,6.624,0,0,0-.587-2.889,6.257,6.257,0,0,0-1.959-2.253,15.745,15.745,0,0,0-3.575-1.91q-2.2-.882-5.339-1.959-3.723-1.176-7.3-2.6a22.935,22.935,0,0,1-6.366-3.771,17.5,17.5,0,0,1-4.506-5.926,20.95,20.95,0,0,1-1.714-9.061,26.161,26.161,0,0,1,1.812-9.941,22.1,22.1,0,0,1,5.093-7.64,22.71,22.71,0,0,1,8.032-4.946,30.344,30.344,0,0,1,10.627-1.763,46.528,46.528,0,0,1,11.46,1.518,50.583,50.583,0,0,1,11.46,4.457Z" fill="#cfc9c6" stroke="#262626" stroke-miterlimit="10" stroke-width="2"/>
        <path id="Path_86" data-name="Path 86" d="M1147.809,2987.559a38.054,38.054,0,0,1,24.34-36,46.937,46.937,0,0,1,32.959,0,38.936,38.936,0,0,1,12.978,8.276,37.884,37.884,0,0,1,8.472,12.39,40.216,40.216,0,0,1,0,30.658,37.864,37.864,0,0,1-8.472,12.39,38.927,38.927,0,0,1-12.978,8.277,46.952,46.952,0,0,1-32.959,0,38.2,38.2,0,0,1-24.34-36Zm20.079,0a19.663,19.663,0,0,0,1.665,8.13,20.339,20.339,0,0,0,11.117,10.725,21.733,21.733,0,0,0,15.965,0,20.92,20.92,0,0,0,6.661-4.261,20.154,20.154,0,0,0,4.554-6.464,20.679,20.679,0,0,0,0-16.259,20.165,20.165,0,0,0-4.554-6.465,20.983,20.983,0,0,0-6.661-4.261,21.746,21.746,0,0,0-15.965,0,20.337,20.337,0,0,0-11.117,10.726A19.667,19.667,0,0,0,1167.888,2987.559Z" fill="#cfc9c6" stroke="#262626" stroke-miterlimit="10" stroke-width="2"/>
      </g>
    </g>
    <g id="Group_68" data-name="Group 68">
      <path id="Path_87" data-name="Path 87" d="M925.48,3106.846c-5.045,5.8-9.786,11.158-14.415,16.614-1.331,1.57-2.433,1.9-4.38.9-24.787-12.755-28.139-49.075-5.621-65.966l24.441,28.027c8.337-9.583,16.338-18.779,24.493-28.151,8.313,6.643,13.454,14.919,14.674,25.023,2.085,17.275-4.232,30.905-19.153,40.346-2.562,1.621-4.178,1.738-6.259-.863C934.973,3117.411,930.295,3112.363,925.48,3106.846Z" fill="#cfc9c6"/>
      <path id="Path_88" data-name="Path 88" d="M905.529,3055.8c6.527-3.775,12.194-7.167,18-10.3a4.838,4.838,0,0,1,3.952.017c5.8,3.136,11.473,6.524,17.988,10.287Z" fill="#fff"/>
    </g>
  </g>
</svg>
