<svg xmlns="http://www.w3.org/2000/svg" width="423.938" height="85.796" viewBox="0 0 423.938 85.796">
  <g id="Group_202" data-name="Group 202" transform="translate(-687.818 -5657.676)">
    <g id="Group_201" data-name="Group 201">
      <g id="Group_200" data-name="Group 200">
        <g id="Group_193" data-name="Group 193">
          <path id="Path_258" data-name="Path 258" d="M710.9,5678.546a40.261,40.261,0,0,0-11.081,1.943l-.488.16v-21.894c-3.84.772-7.727,1.439-11.51,2.1V5718.1c0,3.957,1.688,6.1,5.808,7.313a52.663,52.663,0,0,0,15.293,2.236c14.505,0,23.152-9.235,23.152-24.68C732.071,5686.759,724.939,5678.546,710.9,5678.546Zm-2.517,40.367c-2.212,0-3.9-.187-8.837-1.259l-.579-.148v-28.158l.522-.157c5.05-1.527,7.483-1.741,9.35-1.741,8.2,0,12.2,5.134,12.2,15.695C721.038,5713.458,716.652,5718.913,708.38,5718.913Z" fill="#262626"/>
          <rect id="Rectangle_89" data-name="Rectangle 89" width="11.418" height="48.374" transform="translate(744.856 5678.817)" fill="#262626"/>
          <path id="Path_259" data-name="Path 259" d="M750.56,5658.861c-4.191,0-6.7,2.333-6.7,6.25,0,3.975,2.508,6.348,6.7,6.348s6.689-2.373,6.689-6.348C757.249,5661.194,754.75,5658.861,750.56,5658.861Z" fill="#262626"/>
          <path id="Path_260" data-name="Path 260" d="M814.277,5678.817H800.429l-18.447,21.66v-41.722l-11.418,2.1v66.341h11.418v-7.149c-.089-5.4,2.056-7.751,4.781-10.742l4.372-4.766,10.6,22.657h13.212l-14.781-32.169Z" fill="#262626"/>
          <path id="Path_261" data-name="Path 261" d="M862.047,5716.284a44.49,44.49,0,0,1-13.443,2.266c-8.17,0-13.012-4.077-13.621-11.448l-.019-.4H863.72c3.345,0,4.81-1.488,4.81-4.817,0-15.272-7.835-23.685-22.076-23.685-16.8,0-22.8,12.886-22.8,24.947,0,15.62,8.76,24.581,24.044,24.581,4.9,0,9.308-.8,15.737-2.858l4.431-1.4-1.478-8.571Zm-27.524-17.666c.479-7.887,4.808-12.6,11.574-12.6,7.245,0,11.566,4.717,11.566,12.643v.746h-23.2Z" fill="#262626"/>
        </g>
        <g id="Group_194" data-name="Group 194">
          <path id="Path_262" data-name="Path 262" d="M970.641,5678.283c-14.244,0-22.741,9.248-22.741,24.768,0,15.744,8.288,24.76,22.741,24.76a49.031,49.031,0,0,0,13.93-2.4l3.794-1.15-1.5-9.365-3.528,1.043c-3.991,1.162-8.163,2.252-11.368,2.252-8.094,0-12.192-5.107-12.192-15.137,0-10.05,4.1-15.136,12.192-15.136,3.2,0,7.377,1.089,11.368,2.245l3.528,1.05,1.5-9.377-3.794-1.148A48.923,48.923,0,0,0,970.641,5678.283Z" fill="#262626"/>
        </g>
        <g id="Group_195" data-name="Group 195">
          <path id="Path_263" data-name="Path 263" d="M1000.286,5727.191h11.43v-48.374h-11.43Z" fill="#262626"/>
        </g>
        <g id="Group_196" data-name="Group 196">
          <path id="Path_264" data-name="Path 264" d="M1006,5659.135c-4.192,0-6.713,2.333-6.713,6.248,0,3.963,2.521,6.326,6.713,6.326s6.694-2.363,6.694-6.326C1012.7,5661.468,1010.192,5659.135,1006,5659.135Z" fill="#262626"/>
        </g>
        <g id="Group_197" data-name="Group 197">
          <path id="Path_265" data-name="Path 265" d="M1022.23,5688h6.9v21.935c0,11.97,5.3,17.792,16.183,17.792a44.945,44.945,0,0,0,11.559-1.781l-1.386-8.568a34.941,34.941,0,0,1-8.02,1.349c-4.65,0-7-2.656-7-7.9V5688h14.95v-8.731h-14.95v-12.651l-11.336,2.11v10.541h-6.9Z" fill="#262626"/>
        </g>
        <g id="Group_198" data-name="Group 198">
          <path id="Path_266" data-name="Path 266" d="M1066.97,5741.622a36.939,36.939,0,0,0,11.025,1.85c10.139,0,13.945-5.411,17.1-14.78l16.664-49.875h-12.189l-10.27,35.96-11.842-35.96h-12.869l19.078,48.994-.657,2.188c-.8,2.732-2.194,4.569-6.356,4.569a30.906,30.906,0,0,1-8.29-1.524Z" fill="#262626"/>
        </g>
        <g id="Group_199" data-name="Group 199">
          <path id="Path_267" data-name="Path 267" d="M891.131,5689.584,921.86,5723.9a8.355,8.355,0,0,0,7.3,4.042c4.412,0,7.269-2.932,7.269-7.434v-45.046a16.82,16.82,0,0,0-16.806-16.791h-9.87l2.143,11.6,7.727.019a5.181,5.181,0,0,1,5.215,5.176v32.311l-30.7-33.723c-2.457-2.566-4.276-4.049-7.31-4.049-4.4,0-7.251,2.92-7.251,7.447v50.058h11.56Z" fill="#cfc9c6" stroke="#262626" stroke-miterlimit="10" stroke-width="2"/>
        </g>
      </g>
    </g>
  </g>
</svg>
