<svg xmlns="http://www.w3.org/2000/svg" width="238.075" height="215.201" viewBox="0 0 238.075 215.201">
  <g id="Group_217" data-name="Group 217" transform="translate(-787.085 -5030.462)">
    <g id="Group_205" data-name="Group 205">
      <path id="Path_273" data-name="Path 273" d="M866,5069.25a23.574,23.574,0,0,0-19.389,9.93,23.253,23.253,0,0,0-3.768,17.68,24.19,24.19,0,0,0,9.978,15.516c.058.039,6.023,4.008,11.557,4.608,5.159.57,14.683,6.085,19.5,9.633,5.1,3.392,13.222,10.212,15.535,14.891,2.383,4.838,7.749,8.9,8.349,9.34a24.043,24.043,0,0,0,13.865,4.354,23.617,23.617,0,0,0,19.4-9.922,23.229,23.229,0,0,0,3.758-17.675,24.148,24.148,0,0,0-9.978-15.521c-.048-.034-6.014-4-11.566-4.617-5.191-.567-14.379-5.874-19.246-9.465-5.044-3.354-13.491-10.433-15.77-15.06-2.482-5.014-8.279-9.276-8.334-9.314A24.023,24.023,0,0,0,866,5069.25Zm55.2,73.568a11.4,11.4,0,1,1,9.354-4.866A11.369,11.369,0,0,1,921.205,5142.818ZM866.327,5104.4a11.408,11.408,0,1,1,9.354-4.871A11.35,11.35,0,0,1,866.327,5104.4Z" fill="#262626"/>
    </g>
    <g id="Group_206" data-name="Group 206">
      <path id="Path_274" data-name="Path 274" d="M810.893,5030.462a23.43,23.43,0,0,0-23.4,27.769c.106.6.24,1.177.384,1.742a22.967,22.967,0,0,0,2.241,6.725c2.333,4.275,3.451,24.173,3.285,31.092.151,6.1-.77,16.669-3.285,21.254-2.659,4.854-2.856,11.9-2.86,12.194a23.883,23.883,0,0,0,23.634,24.059c13.033,0,23.639-10.826,23.639-24.13-.024-.736-.3-7.464-2.861-12.128-2.517-4.583-3.433-15.151-3.28-21.19-.053-1.92-.007-4.611.137-7.841l.084-1.983,1.615,1.158a78.107,78.107,0,0,1,6.875,5.571,25.936,25.936,0,0,1-.13-2.625,27.983,27.983,0,0,1,21-26.992,77.166,77.166,0,0,1-9.33-5.763c-5.231-3.471-13.577-10.6-15.778-15.052a23.069,23.069,0,0,0-4.379-5.85A23.506,23.506,0,0,0,810.893,5030.462Zm0,112.064a11.408,11.408,0,1,1,11.41-11.407A11.417,11.417,0,0,1,810.893,5142.526Zm.074-76.764a11.343,11.343,0,0,1-6.532-2.061h0a11.327,11.327,0,1,1,17.868-9.165,11.306,11.306,0,0,1-1.048,4.779,11.408,11.408,0,0,1-10.288,6.447Z" fill="#262626"/>
    </g>
    <g id="Group_207" data-name="Group 207">
      <path id="Path_275" data-name="Path 275" d="M929.789,5159.438a75.516,75.516,0,0,1,8.511,5.348c4.562,3.022,12.188,9.319,15.02,13.95a23.5,23.5,0,0,0,11.244,12.509,23.982,23.982,0,0,0,34.942-23.278c.024-5.452,3.885-14.993,6.616-20.066,2.452-5.169,3.825-6.094,8.345-9.2,4.555-3.115,7.924-9.326,8.068-9.589a23.893,23.893,0,0,0-10.227-32.139,22.912,22.912,0,0,0-10.4-2.464,24.435,24.435,0,0,0-21.592,13.326c-.514,1.109-3.084,6.93-2.908,12.1.17,5.448.225,7.09-2.467,12.1a77.791,77.791,0,0,1-5.6,9.637l-.538.789-.842-.44a77.6,77.6,0,0,1-9.534-5.867,79.531,79.531,0,0,1-7.938-6.173c.031.5.041.989.041,1.473A29.31,29.31,0,0,1,929.789,5159.438Zm45.708,21.746a11.417,11.417,0,1,1,10.194-6.268A11.336,11.336,0,0,1,975.5,5181.184Zm25.916-51.3a11.416,11.416,0,1,1,10.2-6.272A11.382,11.382,0,0,1,1001.413,5129.884Z" fill="#262626"/>
    </g>
    <g id="Group_216" data-name="Group 216">
      <g id="Group_208" data-name="Group 208">
        <path id="Path_276" data-name="Path 276" d="M787.086,5219.421h13.193c3.237,0,5.519.805,7.026,2.274a5.832,5.832,0,0,1,1.654,4.2v.071a5.956,5.956,0,0,1-3.972,5.735c3.125,1.028,5.109,2.789,5.109,6.278v.077c0,4.408-3.606,7.092-9.74,7.092h-13.27Zm14.854,7.943c0-1.435-1.142-2.218-3.24-2.218h-4.66v4.52h4.473c2.174,0,3.427-.724,3.427-2.231Zm-2.467,7.3H794.04v4.741h5.507c2.2,0,3.42-.84,3.42-2.351v-.066C802.967,5235.589,801.868,5234.668,799.473,5234.668Z" fill="#262626"/>
      </g>
      <g id="Group_209" data-name="Group 209">
        <path id="Path_277" data-name="Path 277" d="M816.1,5219.421h7.125v25.723H816.1Z" fill="#262626"/>
      </g>
      <g id="Group_210" data-name="Group 210">
        <path id="Path_278" data-name="Path 278" d="M829.641,5232.349v-.057a13.193,13.193,0,0,1,13.535-13.39,12.647,12.647,0,0,1,10.913,5.337l-5.365,4.156a6.948,6.948,0,0,0-5.623-3.019c-3.6,0-6.145,3.086-6.145,6.839v.077c0,3.849,2.546,6.864,6.145,6.864,2.676,0,4.264-1.249,5.81-3.121l5.361,3.817a12.922,12.922,0,0,1-11.356,5.811A13.074,13.074,0,0,1,829.641,5232.349Z" fill="#262626"/>
      </g>
      <g id="Group_211" data-name="Group 211">
        <path id="Path_279" data-name="Path 279" d="M860.095,5219.421h7.132v25.723h-7.132Z" fill="#262626"/>
      </g>
      <g id="Group_212" data-name="Group 212">
        <path id="Path_280" data-name="Path 280" d="M874.489,5219.421h12.173c3.928,0,6.647,1.027,8.375,2.754a8.038,8.038,0,0,1,2.28,5.994v.072a8.152,8.152,0,0,1-5.294,7.938l6.138,8.965h-8.19l-5.19-7.788h-3.158v7.788h-7.134Zm11.875,12.343c2.386,0,3.818-1.165,3.818-3.046v-.069c0-2.073-1.5-3.095-3.858-3.095h-4.7v6.21Z" fill="#262626"/>
      </g>
      <g id="Group_213" data-name="Group 213">
        <path id="Path_281" data-name="Path 281" d="M903.469,5219.421h20.69v6.032H910.526v3.93h12.347V5235H910.526v4.079h13.825v6.062H903.469Z" fill="#262626"/>
      </g>
      <g id="Group_214" data-name="Group 214">
        <path id="Path_282" data-name="Path 282" d="M930.566,5219.421h9.966c9.15,0,14.482,5.288,14.482,12.713v.081c0,7.42-5.4,12.929-14.638,12.929h-9.81Zm7.129,6.291v13.118H940.6c4.3,0,7.137-2.367,7.137-6.513v-.068c0-4.123-2.832-6.537-7.137-6.537Z" fill="#262626"/>
      </g>
      <g id="Group_215" data-name="Group 215">
        <path id="Path_283" data-name="Path 283" d="M968.7,5219.535h7.583l6.172,10.021,6.177-10.021h7.583v25.889h-7.141v-14.868l-6.619,10.13h-.144l-6.584-10.093v14.831H968.7Z" fill="#262626"/>
        <path id="Path_284" data-name="Path 284" d="M1024.791,5219.535l-8.507,12.613,8.876,13.276h-8.247l-4.953-7.843-4.994,7.843h-8.06l8.874-13.166-8.505-12.723h8.248l4.545,7.286,4.66-7.286Z" fill="#262626"/>
      </g>
    </g>
  </g>
</svg>
