<svg xmlns="http://www.w3.org/2000/svg" width="444.776" height="274.398" viewBox="0 0 444.776 274.398">
  <g id="Group_168" data-name="Group 168" transform="translate(-646.625 -3322.741)">
    <g id="Group_156" data-name="Group 156">
      <g id="Group_155" data-name="Group 155">
        <g id="Group_150" data-name="Group 150">
          <g id="Group_146" data-name="Group 146">
            <path id="Path_169" data-name="Path 169" d="M1017.215,3592.38l-.373-2.117-2.8.248-.547,1.677-2.069.231,2.8-7.986,2.4-.118,2.711,8.228Zm-1.575-6.458-1.176,3.072h1.986Z" fill="#262626"/>
            <path id="Path_170" data-name="Path 170" d="M1038.942,3592.09l-.041-2.432h0a1.865,1.865,0,0,0-1.428-1.764c.728-.342,1.153-.6,1.153-1.427,0-1.3-.894-2.3-2.834-2.3l-4.111.228-.076,8.083,2.081-.3-.063-3.3,2.211-.219c.55,0,.936.156.96.657l.009,3.038Zm-3.358-4.784-1.992.058.136-1.649,1.856.053c.578,0,.907.269.907.756C1036.491,3587.036,1036.162,3587.306,1035.584,3587.306Z" fill="#262626"/>
            <path id="Path_171" data-name="Path 171" d="M1042.806,3589.125l-.011-.339-.016-.219-.014-.428.217-4.408-2.021.613v7.867l1.97-.28Z" fill="#262626"/>
            <path id="Path_172" data-name="Path 172" d="M1044.757,3592.169h0l5.351-.2-.267-1.766-2.015.178-.429.023-.516.016-.089-.007.04-6.722-1.973.274.106,2.806.044.562.019.235-.021.19Z" fill="#262626"/>
            <g id="Group_144" data-name="Group 144">
              <path id="Path_173" data-name="Path 173" d="M998.4,3591.706l-.2-7.574,6.092-.385.091,1.735-4.185.072.085,1.494,3.231-.374.27,1.662-3.5.214v1.667l3.826-.188.433,1.867Z" fill="#262626"/>
              <path id="Path_174" data-name="Path 174" d="M989.7,3591.782l-.762-7.65,3.542-.548c2.1,0,3.834,2.046,4.061,3.936a4.225,4.225,0,0,1-4.061,3.929Zm2.78-2.008a1.843,1.843,0,0,0,2.017-2.17c-.03-1.176-.643-2.33-2.017-2.33l-1.4.28.3,4.075Z" fill="#262626"/>
            </g>
            <path id="Path_175" data-name="Path 175" d="M1021.628,3584.326l4.1.054c2.01-.075,2.959.894,3.016,2.187.027.829-.409,1.109-1.147,1.475a1.871,1.871,0,0,1,1.552,1.771c.058,1.475-1.16,2.32-3.031,2.389l-4.39.37Zm4,3.2c.587-.018.918-.307.9-.817-.017-.487-.364-.739-.954-.718l-2.095.282.048,1.332Zm.36,2.881c.6-.024.988-.3.969-.855s-.441-.7-1.028-.676l-2.463.143.159,1.318Z" fill="#262626"/>
            <g id="Group_145" data-name="Group 145">
              <path id="Path_176" data-name="Path 176" d="M949.76,3586.124a2.161,2.161,0,0,1-.94,3.373,2.645,2.645,0,0,1-3.682-1.016,2.533,2.533,0,0,1,1.029-3.755A2.828,2.828,0,0,1,949.76,3586.124Zm-2.493,2.062a1.08,1.08,0,0,0,1.18-1.034c.1-.587-.318-.931-1-1.015s-.966.283-1.052.87A.951.951,0,0,0,947.267,3588.186Z" fill="#262626"/>
              <path id="Path_177" data-name="Path 177" d="M966.639,3592.734l.066-1.682c2.072-1.46,3.771-2.986,3.689-4.161-.07-1-.584-1.023-1.627-.96-1.015.059-1.5.832-2.183,1.353l-.686-1.215a4.057,4.057,0,0,1,3.233-1.747c1.793-.108,3.215.753,3.33,2.264.11,1.446.038,2.088-2.659,4.205l3.593.187.012,1.518Z" fill="#262626"/>
              <path id="Path_178" data-name="Path 178" d="M958.335,3589.942l.245-.015.15-.009.292-.02,3.093.211.2-1.943h-6.146l.208,1.9Z" fill="#262626"/>
              <path id="Path_179" data-name="Path 179" d="M981.985,3589.354a2.8,2.8,0,0,0-1.554-2.175l-.067-.045-.122-.1a4.793,4.793,0,0,0,.942-.613l.041-.043.074-1.837-5.461-.077-.239,1.511,3.591.1c-.316.182-.67.355-1.04.536-.5.246-1.171.582-1.652.792-.02.009.137.723.156,1.127l.04.2.23-.059a14.376,14.376,0,0,1,1.85-.313,1.152,1.152,0,0,1,1.242.52,2.649,2.649,0,0,1,.185.655,1.4,1.4,0,0,1-2.649.932l-.073-.163-.989.42-.772.356.061.133a3.064,3.064,0,0,0,2.846,1.725h0a4.731,4.731,0,0,0,.8-.078C981.379,3592.431,982.313,3591.155,981.985,3589.354Z" fill="#262626"/>
            </g>
          </g>
          <g id="Group_149" data-name="Group 149">
            <g id="Group_148" data-name="Group 148">
              <g id="Group_147" data-name="Group 147">
                <path id="Path_180" data-name="Path 180" d="M1071,3584.065c2.8-.386,4.452,1.012,4.859,3.257.388,2.226-.613,4.111-3.459,4.725a4.08,4.08,0,1,1-1.4-7.982Zm1.095,6.285c1.5-.21,1.959-1.57,1.73-2.843-.234-1.291-1.357-1.776-2.847-1.566s-1.85,1.13-1.61,2.426A2.311,2.311,0,0,0,1072.093,3590.35Z" fill="#262626"/>
                <path id="Path_181" data-name="Path 181" d="M1057.731,3591.541l.161-1.295c2.237-1.384,4.1-2.85,4.1-4.063,0-1.024-.2-1.3-1.277-1.3-1.053,0-1.924.981-2.666,1.477l-.619-1.287a4.282,4.282,0,0,1,3.456-1.6c1.854,0,3.252.963,3.252,2.524,0,1.5-.121,2.15-3.053,4.154l3.677.407-.1,1.567Z" fill="#262626"/>
                <path id="Path_182" data-name="Path 182" d="M1090.879,3586.374c-1.28,1.454-1.983,3.078-2.132,5.982l-2.451-.233a11.624,11.624,0,0,1,2.612-6.733l-4.811.152.713-1.939,6.18.187Z" fill="#262626"/>
                <path id="Path_183" data-name="Path 183" d="M1079.058,3586.806l.01.335.012.22.026.419-.24,4.39,2.255.283v-8.731l-2.206.292Z" fill="#262626"/>
              </g>
            </g>
          </g>
          <path id="Path_184" data-name="Path 184" d="M939.725,3587.958l.009.343.014.214.025.417-.244,4.392,2.264.279v-8.724l-2.209.287Z" fill="#262626"/>
          <path id="Path_185" data-name="Path 185" d="M948.2,3587.931l.006.339.013.216.025.422-.208,4.776,2.087-.138.111-6.049-1.648-.523Z" fill="#262626"/>
        </g>
        <g id="Group_154" data-name="Group 154">
          <g id="Group_151" data-name="Group 151">
            <path id="Path_186" data-name="Path 186" d="M888.462,3593.242l.218-6.351-1.618,5.369-2.217.209-1.927-5.531.06,6.508-2.045-.078V3584.7l2.42-.788,2.346,5.7,2.058-4.916,2.926-.253-.018,8.924Z" fill="#262626"/>
            <path id="Path_187" data-name="Path 187" d="M907,3589.088l2.585-3.76-2.357-.3-1.756,2.848-1.478-2.695-2.467-.153,2.625,4.063h0l-2.637,4.166,2.212.2,1.757-3,1.671,2.75,2.424-.049L907,3589.088Z" fill="#262626"/>
          </g>
          <g id="Group_152" data-name="Group 152">
            <path id="Path_188" data-name="Path 188" d="M808.576,3586.749c-.671-.8-3.223-.905-4.1-.747-1.346.259-1.97,1.534-1.7,3.018.28,1.521,3.7,2.507,5.055,2.252a2.211,2.211,0,0,0,1.757-1.775l1.36.26c-.485,1.566-1.12,2.954-2.835,3.279-2.473.471-6.91-.631-7.39-3.265a4.516,4.516,0,0,1,3.389-5.512c1.475-.273,5.309.086,6.439,1.422Z" fill="#262626"/>
            <path id="Path_189" data-name="Path 189" d="M812.8,3593.117V3584.5h2.027l.238,8.056Z" fill="#262626"/>
            <path id="Path_190" data-name="Path 190" d="M824.229,3590.131c-.5,1.982-1.363,3.181-3.576,3.141-2.233-.036-3.7-1.3-3.659-3.551l.514-4.923,2.052-.354-.532,5.308c-.02,1.049-.029,1.34,1.076,1.362a2.294,2.294,0,0,0,2.35-2.313l.009-4.275,2.025.029Z" fill="#262626"/>
            <path id="Path_191" data-name="Path 191" d="M826.57,3593.475l-.55-8.974h3.51c2.257,0,4.111,2.233,4.357,4.306a4.587,4.587,0,0,1-4.357,4.31Zm2.96-2.193c1.485,0,2.222-.867,2.177-2.378-.049-1.289-.692-2.552-2.177-2.552h-1.468l.3,4.774Z" fill="#262626"/>
            <path id="Path_192" data-name="Path 192" d="M840.807,3593.54l-.587-1.835-2.924.13-.927,2.139-1.984-.36,3.263-8.3,2.3-.392,2.946,9.054Zm-2.231-6.686-.95,3.191h2.121Z" fill="#262626"/>
            <path id="Path_193" data-name="Path 193" d="M844.469,3592.827l.2-8.349,3.306-.27a4.175,4.175,0,0,1,4.355,4.578c-.181,2.407-1.552,4.267-4.374,4.267Zm3.507-1.841a1.9,1.9,0,0,0,1.966-2.2c-.179-1.51-.487-2.726-1.966-2.726l-1.418.294-.058,4.632Z" fill="#262626"/>
          </g>
          <g id="Group_153" data-name="Group 153">
            <path id="Path_194" data-name="Path 194" d="M858.514,3592.845l.011-8.412,3.43-.037c3.112.11,4.442,2.1,4.268,4.493-.171,2.351-1.509,4.182-4.281,4.182Zm3.441-1.8a1.92,1.92,0,0,0,2.04-2.115c-.169-1.477-.59-2.721-2.04-2.721l-1.327-.052-.113,4.888Z" fill="#262626"/>
            <path id="Path_195" data-name="Path 195" d="M867.71,3593l.389-8.37,6.278-.018-.137,1.683-4.419-.11.117,1.794,3.355-.259.317,1.638-3.672.236.029,1.51,3.983.072.464,2.011Z" fill="#262626"/>
          </g>
          <path id="Path_196" data-name="Path 196" d="M892.936,3593l.392-8.37,6.372-.236-.234,1.9-4.423-.11-.083,1.706,3.649.03.229,1.437-3.679.236.031,1.51,4.417.193.029,1.89Z" fill="#262626"/>
          <path id="Path_197" data-name="Path 197" d="M893.94,3581.9l.124,1.136,2.227-.066,2.942-.25.095-2.078-2.975.569Z" fill="#262626"/>
          <path id="Path_198" data-name="Path 198" d="M931.809,3586.251c1.895,1.763,1.52,3.732-.023,5.509-1.521,1.766-3.693,2.033-5.82.415a3.9,3.9,0,0,1-.346-5.947C927.276,3584.555,929.571,3584.16,931.809,3586.251Zm-4.678,4.579c1.028.93,2.371.351,3.242-.656.883-1.027.623-2.145-.413-3.072s-1.954-.549-2.834.469A2.208,2.208,0,0,0,927.131,3590.83Z" fill="#262626"/>
          <path id="Path_199" data-name="Path 199" d="M922.378,3587.9a3.571,3.571,0,0,0-2.7-1.636,2.311,2.311,0,0,0-2.435,2.441,2.769,2.769,0,0,0,2.435,2.97c.967,0,1.151-.3,1.641-1.228l1.611.814c-.774,1.472-1.537,2.213-3.294,2.213a4.131,4.131,0,0,1-4.425-4.319c0-2.687,1.768-4.726,4.3-4.726,1.514,0,3.662.9,3.874,2.2Z" fill="#262626"/>
          <path id="Path_200" data-name="Path 200" d="M913.253,3584.958l-1.856.126-.183,3.97.059,4.217,1.8-.121-.063-3.658Z" fill="#262626"/>
        </g>
      </g>
    </g>
    <g id="Group_164" data-name="Group 164">
      <g id="Group_163" data-name="Group 163">
        <g id="Group_160" data-name="Group 160">
          <g id="Group_159" data-name="Group 159">
            <g id="Group_158" data-name="Group 158">
              <path id="Path_201" data-name="Path 201" d="M1067,3442.231l10.006-.663.935,35.6-10.484-.9Z" fill="#262626"/>
              <path id="Path_202" data-name="Path 202" d="M976.125,3449.74l-23.672-.442-.465,5.937,16.671.9v6.2H952.453l-.465,5.762,22.959-.455.648,9.3-32.632-.672-.472-34.48,33.634-.9Z" fill="#262626"/>
              <path id="Path_203" data-name="Path 203" d="M1001.769,3369.082l20.412.452c9.084,0,13.25,4.368,13.25,9.978,0,3.6-2,4.744-5.41,6.225,3.762,1.13,6.707,3.649,6.707,7.926,0,6.412-5.629,9.905-14.079,9.905l-19.933.9Zm19.426,14.1c2.685,0,4.233-1.188,4.233-3.4,0-2.121-1.548-3.305-4.233-3.305l-9.514.9v5.806Zm1.144,12.555c2.727,0,4.538-1.13,4.538-3.547,0-2.361-1.863-3.1-4.538-3.1l-11.12.233.462,5.746Z" fill="#262626"/>
              <path id="Path_204" data-name="Path 204" d="M942.963,3426.985l-.472-8.4,35.453.891.785,6.838Z" fill="#262626"/>
              <path id="Path_205" data-name="Path 205" d="M1080.307,3548.139c-9.353,3.49-20.357,3.285-26.2-9.489-4.31-9.4,1.03-19.669,10.727-23.3a18.33,18.33,0,0,1,24.2,12.438C1090.791,3534.39,1090,3544.49,1080.307,3548.139Zm-17.047-19.106c-1.846,4.686-.034,9.683,4.833,11.419s9.526.059,11.368-4.643c1.839-4.686-.087-10.005-4.955-11.746S1065.1,3524.33,1063.26,3529.033Z" fill="#262626"/>
              <path id="Path_206" data-name="Path 206" d="M1028.134,3537.945c-1.746,2.135-3.776,2.838-6.83,2.838-5.249,0-10.215-3.359-10.215-8.322a9.269,9.269,0,0,1,9.5-9c3.073,0,6.493.476,8.243,2.6l5.345-6.076a19.321,19.321,0,0,0-13.588-5.482c-10.408,0-19.587,7.6-19.587,17.5s9.179,18.408,19.587,18.408c5.568,0,8.224-1.178,11.68-4.818Z" fill="#262626"/>
              <path id="Path_207" data-name="Path 207" d="M980.536,3370.248l-8.938-1.166L961.99,3381.9l-9.307-13.264-9.445-.736-.275,35.226,8.441.449,1.027-.02.687-20.946,8.173,12.685,10.3-12.486v20.761l.01.641,9.333-.641Z" fill="#262626"/>
              <path id="Path_208" data-name="Path 208" d="M1027.138,3459.039l12.161-16.581-11.086-1.346-8.25,12.567-6.952-11.89-11.59-.677,12.327,17.927h0l-12.368,18.37,10.366.9,8.25-13.233,7.89,12.117,11.361-.227-12.09-17.924Z" fill="#262626"/>
              <path id="Path_209" data-name="Path 209" d="M922.278,3376.519l-.706-9.3-32.93,1.128v35.607l9.971-.45-.012-8.176V3389.1l16.208.457-.938-7.543h-15.5l.226-6.4Z" fill="#262626"/>
              <g id="Group_157" data-name="Group 157">
                <path id="Path_210" data-name="Path 210" d="M1073.145,3374.927l5.544-10.312-5.743-7.164-14.559,25.287-.227.671c-3.159,4.82-2.73,10.546,1.2,15.232a14.606,14.606,0,0,0,11.254,5.165,14.857,14.857,0,0,0,8.995-3.014c6.212-4.748,7.7-13.425,2.721-19.351C1080.127,3378.806,1076.57,3375.5,1073.145,3374.927Zm1.891,18.767a4.8,4.8,0,0,1-3.262,1.261c-1.7.266-3.4.227-4.678-.871a5.784,5.784,0,0,1-.494-8.068,5.718,5.718,0,0,1,3.253-1.7,5.8,5.8,0,0,1,4.679,1.308C1075.524,3386.485,1077.158,3391.436,1075.036,3393.694Z" fill="#262626"/>
              </g>
            </g>
          </g>
        </g>
        <g id="Group_162" data-name="Group 162">
          <g id="Group_161" data-name="Group 161">
            <path id="Path_211" data-name="Path 211" d="M813.521,3441.28h.065C813.687,3441.292,813.449,3441.288,813.521,3441.28Z" fill="#262626"/>
            <path id="Path_212" data-name="Path 212" d="M700.524,3551.11l-19.971,35.051-8.848-7.038,15.918-24.488-41-21.15,5.642-11.7Z" fill="#262626"/>
            <path id="Path_213" data-name="Path 213" d="M651.07,3545.352l23.876,10.41-10.906,20.543-6.773-7.6,7.957-9.288-14.741-4.507Z" fill="#262626"/>
            <path id="Path_214" data-name="Path 214" d="M695.444,3497.1l19.6-33.938,10.023,1.127-26.387,47.3-40.41-22.1,7.035-4.962Z" fill="#262626"/>
            <path id="Path_215" data-name="Path 215" d="M672.94,3478.937l5.259-5.018,10.909,3.035,7.846-13.669,8.5,1.852-14.109,22.714Z" fill="#262626"/>
            <path id="Path_216" data-name="Path 216" d="M756.6,3472.45l5.9,5.346-15.364,28.14,42.193,23.93-2.063,8.163L735.17,3510.3Z" fill="#262626"/>
            <path id="Path_217" data-name="Path 217" d="M760.727,3504.251l6.385-20.346,8.348,5.714-5.113,12.585,19.269,7.677-5.416,7.581Z" fill="#262626"/>
            <path id="Path_218" data-name="Path 218" d="M779,3563.643l-6.308,5.4-29.416-8.588-21.17,36.69-8.544-1.132,25.1-49.454Z" fill="#262626"/>
            <path id="Path_219" data-name="Path 219" d="M771.338,3578.275l-7.954,6.759-12.092-5.347-5.023,14.99-10.391-1.987,11.543-23.808Z" fill="#262626"/>
          </g>
          <path id="Path_220" data-name="Path 220" d="M709.655,3547.566c.639.31,2.52.967,2.52.967l-15.653,28.01-6.582,13.883s5.076,2.4,7.587,2.645a22.44,22.44,0,0,0,8.268-.818l28.173-51.862.233-.371a9.367,9.367,0,0,0,.587-1.108,18.8,18.8,0,0,0,1.109-3.6l39.588,18.406s2.741,1.658,5.854-2.314c1.454-1.844,2.117-7.27,2.117-7.27l-55.346-29.571-.481-.3c-.409-.238-.828-.467-1.269-.678l-2.581-1.24L745,3476.052l14.121-23.636,19.753,18.274,27.707,24.26s53.186,39.449,67.453,53.948l7.558-2.345,7.446-6.112-10.808-10.262-28.78-21.049-24.8-17.827s-43.039-37.808-44.089-39.027c-.808-.925-7.353-6.061-7.5-6.286l-4.134-4.242,9.7.268c2.154-.041,4.81-.06,7.653-.06,2.466,0,14.02-.515,16.633-.208l10.61-.468c.141-.018,1.567-.046,9.767,0l35.8.58,16.393.03.612-4.674-2.055-9.181-101.013.683,5.546-10.586,16.8-26.578,17.811-.737,13.7-.6,6.276-.254,10.452-.675-.276-7.531-1.392-7.271h-25.26c-8.444,1.039-24.764,1.717-30.485,2.313L757.1,3427.064l-24.34,39.3-30.817,54.144-.225.364c-.22.373-.426.756-.623,1.142l-1.37,2.766L662.978,3501.3s-3.8,2.608-4.905,3.653c-1.684,1.594-5.915,7.1-5.915,7.1l12.847,8.266,39.181,24.193C705.651,3545.393,709.144,3547.309,709.655,3547.566Zm1.3-11.8a8.069,8.069,0,0,1,1.382-11.677,8.172,8.172,0,0,1,5.034-1.728,8.361,8.361,0,0,1,7.178,4.1c1.9,3.125,2.266,7.5-1.208,10.225a9.852,9.852,0,0,1-6,2.32A8.314,8.314,0,0,1,710.959,3535.763Z" fill="#262626"/>
        </g>
      </g>
    </g>
    <g id="Group_167" data-name="Group 167">
      <path id="Path_221" data-name="Path 221" d="M884.7,3332.142c-.592,2.57-1.61,4.137-4.215,4.09-2.631-.05-4.349-1.7-4.311-4.636l.607-6.411,2.422-.466-.637,6.926c-.018,1.363-.03,1.747,1.271,1.776a2.853,2.853,0,0,0,2.766-3.024l.014-5.557,2.377.04Z" fill="#262626"/>
      <path id="Path_222" data-name="Path 222" d="M901.606,3335.9l-.638-11.691H905.1c2.648,0,4.829,2.908,5.121,5.6.185,1.771-1.795,5.616-5.121,5.616Zm3.495-2.86c1.744,0,2.615-1.13,2.549-3.1-.053-1.669-.805-3.318-2.549-3.318h-1.735l.355,6.218Z" fill="#262626"/>
      <path id="Path_223" data-name="Path 223" d="M959.125,3334.987l-.245-10.8,7.668-.564.119,2.482-5.26.1.1,2.133,4.07-.54.341,2.374-4.411.311v2.375l4.818-.275.55,2.666Z" fill="#262626"/>
      <path id="Path_224" data-name="Path 224" d="M924.733,3335.008l-.452-3.014-3.541.344-.7,2.4-2.6.33,3.529-11.383L924,3323.5l3.413,11.734Zm-1.986-9.208-1.468,4.378h2.5Z" fill="#262626"/>
      <path id="Path_225" data-name="Path 225" d="M993.632,3334.893l-.559-3.032-3.352.417-.44,2.878h-2.646l3.253-12.024,3.1.32,3.367,11.679Zm-2.451-9.1-.924,4.335,2.345-.476Z" fill="#262626"/>
      <path id="Path_226" data-name="Path 226" d="M893.973,3335.082l-3.274-7.338.351,7.283-2.641.4.085-10.609,3.279-.655,3.252,7.559-.207-6.77,2.486-.745-.472,11.5Z" fill="#262626"/>
      <path id="Path_227" data-name="Path 227" d="M869.88,3336.153v.212l2.6-.212-.109-10.934-2.49-.379-2.667,4.2-2.588-4.353-2.63-.237-.08,11.556,2.348.149.286,0,.2-6.874,2.273,4.159,2.862-4.1" fill="#262626"/>
      <path id="Path_228" data-name="Path 228" d="M811.272,3328.2l-.2-3.053-9.16.367V3337.2l2.774-.141v-4.727l4.506.144L808.93,3330h-4.312l.071-2.1Z" fill="#262626"/>
      <path id="Path_229" data-name="Path 229" d="M817.84,3336.787c-3.183-.067-4.424-2.449-4.424-5.7,0-3.233,1.809-5.515,5.092-5.811,3.179-.294,5.307,2.622,5.116,5.811C823.428,3334.338,821.609,3336.86,817.84,3336.787Zm.668-9.049c-1.707,0-2.493,1.825-2.493,3.681a2.573,2.573,0,0,0,2.857,2.787c1.71,0,2.27-1.25,2.27-3.117C821.142,3329.239,820.212,3327.738,818.508,3327.738Z" fill="#262626"/>
      <path id="Path_230" data-name="Path 230" d="M835.759,3336.279l-.059-3.475h0a2.605,2.605,0,0,0-1.8-2.514c.92-.482,1.459-.855,1.459-2.042,0-1.844-1.123-3.274-3.568-3.274l-5.175.327-.1,11.527,2.622-.422-.084-4.705,2.782-.312c.692,0,1.186.218,1.218.934l.01,4.341Zm-4.226-6.827-2.519.082.171-2.353,2.348.068a1.011,1.011,0,0,1,1.135,1.085A1.022,1.022,0,0,1,831.533,3329.452Z" fill="#262626"/>
      <path id="Path_231" data-name="Path 231" d="M846.778,3335.512c-2.167,2.633-4.566,2.084-6.722-.077-2.137-2.15-2.452-5.178-.471-8.146a4.4,4.4,0,0,1,7.267-.43C848.877,3329.181,849.334,3332.393,846.778,3335.512Zm-5.555-6.582c-1.136,1.427-.443,3.306.785,4.542s2.6.885,3.741-.545.682-2.73-.547-3.985C843.971,3327.715,842.36,3327.493,841.223,3328.93Z" fill="#262626"/>
      <path id="Path_232" data-name="Path 232" d="M914.95,3331.211l-.022-.492-.019-.311-.019-.6.278-6.289-2.546.877v11.224l2.48-.406Z" fill="#262626"/>
      <path id="Path_233" data-name="Path 233" d="M929.214,3335.206h0l6.741-.286-.338-2.518-2.545.256-.536.033-.647.017-.116,0,.053-9.587-2.5.393.144,4,.064.8.023.341-.035.262Z" fill="#262626"/>
      <path id="Path_234" data-name="Path 234" d="M948.169,3335.09l-.964-10.9,4.455-.785c2.649,0,4.832,2.905,5.119,5.607.191,1.767-1.793,5.612-5.119,5.612Zm3.491-2.867c1.737,0,2.61-1.125,2.545-3.093-.048-1.679-.808-3.323-2.545-3.323l-1.759.4.375,5.811Z" fill="#262626"/>
      <path id="Path_235" data-name="Path 235" d="M978.47,3335.6h0l6.73-.278-.333-2.519-2.547.255-.528.022-.663.026-.108-.008.509-9.53-2.946.336.142,4,.051.808.021.333-.024.263Z" fill="#262626"/>
      <path id="Path_236" data-name="Path 236" d="M1063.774,3334.471l.142-11.73,7.588.452v2.408l-5.432-.249.2,2.155,3.67.012.212,2.193-3.882-.061-.156,2.384,5.086.107.128,2.43Z" fill="#262626"/>
      <path id="Path_237" data-name="Path 237" d="M1089,3335.6l-1.517-3.134-3.053-.036-.478,2.962-2.488-.366,3.353-12.079,2.762.5,3.818,11.63Zm-2.783-9.253-1.237,3.926h2.491Z" fill="#262626"/>
      <path id="Path_238" data-name="Path 238" d="M1008.145,3322.971l5.165.073c2.526-.1,3.721,1.278,3.794,3.128.027,1.173-.512,1.569-1.448,2.1a2.585,2.585,0,0,1,1.958,2.522c.065,2.1-1.459,3.312-3.812,3.416l-5.529.521Zm5.041,4.555a1.034,1.034,0,0,0,1.13-1.159,1.013,1.013,0,0,0-1.211-1.031l-2.636.4.066,1.9Zm.441,4.108c.758-.029,1.258-.423,1.226-1.216-.027-.777-.55-1-1.3-.962l-3.089.2.19,1.882Z" fill="#262626"/>
      <g id="Group_165" data-name="Group 165">
        <path id="Path_239" data-name="Path 239" d="M1022.98,3330.6l-.021-.493-.015-.307-.014-.612.271-6.29-2.548.88v11.225l2.488-.407Z" fill="#262626"/>
      </g>
      <path id="Path_240" data-name="Path 240" d="M1033.325,3327.322a3.023,3.023,0,0,0-2.719-1.721,2.854,2.854,0,0,0-2.847,3.148c0,2.007,1.242,3.829,2.847,3.829,1.123,0,1.352-.385,1.92-1.577l1.874,1.051c-.9,1.887-1.787,2.853-3.837,2.853-2.968,0-5.167-2.082-5.167-5.571,0-3.472,2.062-6.1,5.022-6.1,1.762,0,4.268,1.163,4.518,2.841Z" fill="#262626"/>
      <g id="Group_166" data-name="Group 166">
        <path id="Path_241" data-name="Path 241" d="M1037.769,3328.124l.021.492.011.306.026.611-.278,6.281,2.553-.876v-11.229l-2.49.415Z" fill="#262626"/>
      </g>
      <path id="Path_242" data-name="Path 242" d="M1050.75,3331.152a2.925,2.925,0,0,1-2.859,1.345,2.892,2.892,0,0,1-2.522-3.411c.2-1.953,1.581-3.568,3.185-3.364,1.117.137,1.306.533,1.756,1.771l1.963-.8c-.709-1.94-1.5-2.989-3.533-3.232-2.95-.372-5.344,1.376-5.669,4.763-.333,3.369,1.477,6.177,4.4,6.54,1.752.22,4.355-.6,4.759-2.2Z" fill="#262626"/>
      <path id="Path_243" data-name="Path 243" d="M1054.506,3335.206h0l6.725-.286-.325-2.518-2.548.256-.529.033-.66.017-.1,0,.05-9.587-2.484.387.132,4,.06.8.014.341-.028.262Z" fill="#262626"/>
      <path id="Path_244" data-name="Path 244" d="M1078.693,3330.719l-.019-.311-.021-.6.181-4.164h3.1l-.4-2.575-2.308-.014-.429.014-.267.022-.545.022-4.363.063-.018,2.759,2.766-.286v9.968l2.419-.1-.091-4.305Z" fill="#262626"/>
    </g>
  </g>
</svg>
