<svg xmlns="http://www.w3.org/2000/svg" width="285.746" height="300.696" viewBox="0 0 285.746 300.696">
  <g id="Group_71" data-name="Group 71" transform="translate(-765.246 -1614.731)">
    <g id="Group_70" data-name="Group 70">
      <path id="Path_89" data-name="Path 89" d="M820.344,1839.225H811.83l-1.877-35.69h-.331c-4.9,11.609-13.073,28.349-14.816,31.814l-4.487-.028c-3.018-6.607-8.316-18.848-15.083-31.987H774.9l-1.275,35.891h-8.376l2.079-50.035h9.18c7.577,14.012,14.882,30.956,16.223,34.157h.335c2.883-5.539,10.125-21.348,15.012-34.157h9.59Z" fill="#262626"/>
      <path id="Path_90" data-name="Path 90" d="M843.2,1834.086c2.613,0,5.7-1.467,8.313-4.2v-8.005c-3.288.66-7.374,1.668-9.855,2.4-2.277.6-4.02,1.468-4.02,4.27a5.453,5.453,0,0,0,5.562,5.536m21.446,4.27a21.037,21.037,0,0,1-6.969,1.47c-3.687,0-5.36-1.6-5.9-4.8l-.342-.135c-3.948,3.27-7.029,4.939-11.457,4.939-5.966,0-11.054-4.27-11.054-10.541,0-5.005,2.877-7.072,8.373-8.473,4.625-1.134,10.592-2.337,14.213-3.27v-2.2c0-4.264-1.677-6.6-7.1-6.6a28.752,28.752,0,0,0-12,3.2l-1.743-5.4a32.009,32.009,0,0,1,14.414-4.006c7.44,0,15.011,2.005,15.011,13.145v15.474c0,1.4.2,2.475,1.95,2.475a15.588,15.588,0,0,0,2.208-.138Z" fill="#262626"/>
      <path id="Path_91" data-name="Path 91" d="M872.087,1803.133h7.179l.939,4.672.468.066c3.683-3.537,7.508-5.338,12-5.338,7.508,0,11.663,4.942,11.663,13.61v23.082H895.75v-21.749c0-5.734-2.211-8.138-6.162-8.138-3.489,0-6.839,2.134-8.915,4.8v25.086h-8.586Z" fill="#262626"/>
      <path id="Path_92" data-name="Path 92" d="M946.026,1839.225h-6.767l-1.281-4.272-.468-.069a17.4,17.4,0,0,1-11.795,4.942c-7.242,0-12.132-5.338-12.132-13.214v-23.479h8.58v22.015c0,5.136,2.409,8.338,6.569,8.338,3.216,0,6.7-2.337,8.718-4.468v-25.885h8.576Z" fill="#262626"/>
      <path id="Path_93" data-name="Path 93" d="M969.149,1834.086c2.613,0,5.7-1.467,8.318-4.2v-8.005c-3.288.66-7.382,1.668-9.857,2.4-2.28.6-4.023,1.468-4.023,4.27a5.455,5.455,0,0,0,5.562,5.536m21.451,4.27a21.046,21.046,0,0,1-6.968,1.47c-3.687,0-5.364-1.6-5.9-4.8l-.336-.135c-3.954,3.27-7.037,4.939-11.459,4.939-5.964,0-11.06-4.27-11.06-10.541,0-5.005,2.885-7.072,8.381-8.473,4.623-1.134,10.586-2.337,14.213-3.27v-2.2c0-4.264-1.677-6.6-7.112-6.6a28.767,28.767,0,0,0-12,3.2l-1.74-5.4a31.989,31.989,0,0,1,14.409-4.006c7.439,0,15.016,2.005,15.016,13.145v15.474c0,1.4.2,2.475,1.941,2.475a15.778,15.778,0,0,0,2.217-.138Z" fill="#262626"/>
      <rect id="Rectangle_76" data-name="Rectangle 76" width="8.513" height="51.368" transform="translate(998.04 1787.861)" fill="#262626"/>
      <path id="Path_94" data-name="Path 94" d="M790.379,1904.355v-18.411a16.252,16.252,0,0,0-6.765-1.665c-7.307,0-9.659,5.935-9.659,12.872,0,7.27,3.222,12.008,7.715,12.008a11.3,11.3,0,0,0,8.709-4.8m-25.133-6.871c0-13.007,6.843-19.344,17.03-19.344a24.314,24.314,0,0,1,8.1,1.4v-16.077h8.378v51.368h-6.7l-1.209-4.471-.393-.069c-2.55,2.6-5.7,5.137-10.863,5.137-9.38,0-14.345-8.2-14.345-17.943" fill="#262626"/>
      <path id="Path_95" data-name="Path 95" d="M832.952,1892.284c0-6.271-2.955-8.608-7.245-8.608-4.355,0-7.973,2.535-8.714,8.608Zm7.034,20.61a33.917,33.917,0,0,1-13.2,2.533c-9.653,0-18.77-4.8-18.77-18.078,0-14.273,8.241-19.209,17.492-19.209,10.392,0,15.347,5.935,15.347,15.672,0,.87,0,1.875-.06,2.739H816.726v1.4c0,8.068,4.827,11.138,11.261,11.138a36.849,36.849,0,0,0,11.124-2.064Z" fill="#262626"/>
      <path id="Path_96" data-name="Path 96" d="M867.129,1897.349c0-10.405,3.485-19.209,16.96-19.209a31.973,31.973,0,0,1,11.529,2.266l-1.272,6.538a24.277,24.277,0,0,0-9.048-2.068c-6.632,0-9.452,4.267-9.452,12.275,0,7.072,2.877,11.543,10.055,11.543a30.891,30.891,0,0,0,9.447-1.8l1.074,6.136a30.576,30.576,0,0,1-12.132,2.4c-10.457,0-17.161-5.935-17.161-18.078" fill="#262626"/>
      <path id="Path_97" data-name="Path 97" d="M917.264,1909.7c2.613,0,5.7-1.473,8.319-4.207v-8c-3.291.663-7.38,1.665-9.863,2.4-2.274.6-4.014,1.468-4.014,4.27a5.453,5.453,0,0,0,5.558,5.539m21.449,4.266a21.07,21.07,0,0,1-6.969,1.465c-3.686,0-5.366-1.6-5.894-4.8l-.339-.135c-3.957,3.271-7.044,4.936-11.46,4.936-5.969,0-11.06-4.27-11.06-10.538,0-5,2.88-7.069,8.382-8.473,4.617-1.134,10.583-2.334,14.21-3.267v-2.2c0-4.272-1.68-6.607-7.116-6.607a28.79,28.79,0,0,0-11.993,3.2l-1.74-5.4a32,32,0,0,1,14.411-4.006c7.437,0,15.008,2,15.008,13.142v15.477c0,1.4.2,2.469,1.95,2.469a14.892,14.892,0,0,0,2.211-.135Z" fill="#262626"/>
      <rect id="Rectangle_77" data-name="Rectangle 77" width="8.516" height="51.368" transform="translate(946.155 1863.465)" fill="#262626"/>
      <rect id="Rectangle_78" data-name="Rectangle 78" width="8.516" height="51.368" transform="translate(965.195 1863.465)" fill="#262626"/>
      <path id="Path_98" data-name="Path 98" d="M1007.822,1892.284c0-6.271-2.949-8.608-7.238-8.608-4.353,0-7.974,2.535-8.712,8.608Zm7.038,20.61a33.9,33.9,0,0,1-13.2,2.533c-9.651,0-18.767-4.8-18.767-18.078,0-14.273,8.249-19.209,17.492-19.209,10.391,0,15.356,5.935,15.356,15.672,0,.87,0,1.875-.072,2.739H991.6v1.4c0,8.068,4.827,11.138,11.264,11.138a36.812,36.812,0,0,0,11.121-2.064Z" fill="#262626"/>
      <path id="Path_99" data-name="Path 99" d="M1035.507,1915.427c-4.625,0-9.989-1.329-12.608-2.8l1.011-5.736a31.58,31.58,0,0,0,11.795,2.67c3.891,0,7.11-1.005,7.11-4.87,0-6.8-19.373-3.738-19.373-15.812,0-7.135,5.9-10.736,14.678-10.736a33.534,33.534,0,0,1,11.528,2.065l-1.274,5.8a29.882,29.882,0,0,0-10.188-2c-3.819,0-6.365,1.467-6.365,4.468,0,6.271,19.171,3.534,19.171,15.875,0,7.741-6.971,11.072-15.485,11.072" fill="#262626"/>
    </g>
    <path id="Path_100" data-name="Path 100" d="M865.119,1751.565H856.2l-.825-1.464a18.976,18.976,0,0,0-16.527-9.653l-73.6.014V1614.731h73.42a24.771,24.771,0,0,1,21.9,13.116,24.691,24.691,0,0,1,21.8-13.116h73.715v125.648l-73.577.008a19.06,19.06,0,0,0-16.57,9.714Zm-5.628-5.742h2.337a24.8,24.8,0,0,1,20.682-11.178l67.835-.009V1620.473H882.372a18.9,18.9,0,0,0-18.913,18.845h-5.78a18.9,18.9,0,0,0-18.916-18.845H770.989V1734.72l67.766-.021a24.815,24.815,0,0,1,20.736,11.124m3.56-14.6h-5.742v-19.944h5.742Zm0-31.7h-5.742v-19.944h5.742Zm0-31.665h-5.742v-19.947h5.742Z" fill="#262626"/>
  </g>
</svg>
