<svg xmlns="http://www.w3.org/2000/svg" width="108.82" height="76.948" viewBox="0 0 108.82 76.948">
  <g id="Group_43" data-name="Group 43" transform="translate(-1221.208 -38.126)">
    <path id="Path_9" data-name="Path 9" d="M1284.641,54.819H1266.6l-12.758,12.759V85.621L1266.6,98.38h18.045L1297.4,85.621V67.578Zm-14.368,34.687-7.561-7.561V71.253l7.561-7.56h10.692l7.56,7.56V81.945l-7.56,7.561Z" fill="#25282a"/>
    <path id="Path_10" data-name="Path 10" d="M1291.555,38.126h-31.874L1221.208,76.6l38.474,38.475h31.873L1330.028,76.6Zm-28.2,68.073-29.6-29.6,29.6-29.6h24.52l29.6,29.6-29.6,29.6Z" fill="#25282a"/>
    <path id="Path_11" data-name="Path 11" d="M1275.619,71.128a5.472,5.472,0,1,0,5.471,5.471A5.478,5.478,0,0,0,1275.619,71.128Z" fill="#25282a"/>
  </g>
</svg>
